<svg xmlns="http://www.w3.org/2000/svg" version="1.1" xmlns:xlink="http://www.w3.org/1999/xlink" xmlns:svgjs="http://svgjs.dev/svgjs" width="2000" height="1500" viewBox="0 0 2000 1500"><rect width="2000" height="1500" fill="#925fe2"></rect><g transform="matrix(0.75,0,0,0.75,249.090909090909,278.98548387096776)"><svg viewBox="0 0 396 248" data-background-color="#925fe2" preserveAspectRatio="xMidYMid meet" height="1252" width="2000" xmlns="http://www.w3.org/2000/svg" xmlns:xlink="http://www.w3.org/1999/xlink"><g id="tight-bounds" transform="matrix(1,0,0,1,0.2400000000000091,0.4000000000000057)"><svg viewBox="0 0 395.52 247.2" height="247.2" width="395.52"><g><svg></svg></g><g><svg viewBox="0 0 395.52 247.2" height="247.2" width="395.52"><g transform="matrix(1,0,0,1,75.54432,102.22961736175247)"><svg viewBox="0 0 244.43135999999998 42.740765276495054" height="42.740765276495054" width="244.43135999999998"><g><svg viewBox="0 0 244.43135999999998 42.740765276495054" height="42.740765276495054" width="244.43135999999998"><g><svg viewBox="0 0 244.43136 42.74076527649506" height="42.740765276495054" width="244.43135999999998"><g><svg viewBox="0 0 244.43136 42.74076527649506" height="42.74076527649506" width="244.43136"><g id="textblocktransform"><svg viewBox="0 0 244.43136 42.74076527649506" height="42.74076527649506" width="244.43136" id="textblock"><g><svg viewBox="0 0 244.43136 23.15222411021814" height="23.15222411021814" width="244.43136"><g transform="matrix(1,0,0,1,0,0)"><svg width="244.43136" viewBox="1.34 -35.5 382.74 36.26" height="23.15222411021814" data-palette-color="#ffffff"><path d="M27.49-9.69L31.2-3.59Q28.76-1.49 25.73-0.37 22.71 0.76 19.46 0.76L19.46 0.76Q16.97 0.76 14.66 0.11 12.35-0.54 10.34-1.72 8.33-2.91 6.67-4.57 5-6.23 3.82-8.24 2.64-10.25 1.99-12.56 1.34-14.87 1.34-17.36L1.34-17.36Q1.34-19.85 1.99-22.17 2.64-24.49 3.82-26.5 5-28.52 6.67-30.18 8.33-31.84 10.34-33.02 12.35-34.2 14.66-34.85 16.97-35.5 19.46-35.5L19.46-35.5Q22.71-35.5 25.73-34.39 28.76-33.28 31.2-31.15L31.2-31.15 27.49-25.05Q25.95-26.71 23.85-27.6 21.75-28.49 19.46-28.49L19.46-28.49Q17.14-28.49 15.11-27.61 13.09-26.73 11.57-25.23 10.06-23.73 9.18-21.69 8.3-19.65 8.3-17.36L8.3-17.36Q8.3-15.06 9.18-13.05 10.06-11.04 11.57-9.52 13.09-8.01 15.11-7.13 17.14-6.25 19.46-6.25L19.46-6.25Q21.75-6.25 23.85-7.14 25.95-8.03 27.49-9.69L27.49-9.69ZM68.55-17.36L68.55-17.36Q68.55-14.87 67.91-12.56 67.26-10.25 66.09-8.24 64.91-6.23 63.25-4.57 61.59-2.91 59.59-1.72 57.59-0.54 55.27 0.11 52.95 0.76 50.46 0.76L50.46 0.76Q47.97 0.76 45.66 0.11 43.36-0.54 41.34-1.72 39.33-2.91 37.67-4.57 36.01-6.23 34.82-8.24 33.64-10.25 32.99-12.56 32.35-14.87 32.35-17.36L32.35-17.36Q32.35-19.85 32.99-22.17 33.64-24.49 34.82-26.49 36.01-28.49 37.67-30.15 39.33-31.81 41.34-32.98 43.36-34.16 45.66-34.8 47.97-35.45 50.46-35.45L50.46-35.45Q52.95-35.45 55.27-34.8 57.59-34.16 59.59-32.98 61.59-31.81 63.25-30.15 64.91-28.49 66.09-26.49 67.26-24.49 67.91-22.17 68.55-19.85 68.55-17.36ZM61.59-17.36L61.59-17.36Q61.59-19.65 60.72-21.69 59.84-23.73 58.33-25.23 56.83-26.73 54.79-27.61 52.76-28.49 50.46-28.49L50.46-28.49Q48.14-28.49 46.12-27.61 44.09-26.73 42.58-25.23 41.06-23.73 40.18-21.69 39.3-19.65 39.3-17.36L39.3-17.36Q39.3-15.06 40.18-13.05 41.06-11.04 42.58-9.52 44.09-8.01 46.12-7.13 48.14-6.25 50.46-6.25L50.46-6.25Q52.76-6.25 54.79-7.13 56.83-8.01 58.33-9.52 59.84-11.04 60.72-13.05 61.59-15.06 61.59-17.36ZM97.65-7.01L97.65 0 73.14 0 73.14-35.01 80.15-35.01 80.15-7.01 97.65-7.01ZM125.8-7.01L125.8 0 101.29 0 101.29-35.01 108.29-35.01 108.29-7.01 125.8-7.01ZM153.43-7.01L153.43 0 129.43 0 129.43-35.01 153.43-35.01 153.43-28 136.44-28 136.44-21 147.94-21 147.94-13.99 136.44-13.99 136.44-7.01 153.43-7.01ZM185.34-17.36L185.34-3.54Q182.9-1.46 179.89-0.35 176.89 0.76 173.64 0.76L173.64 0.76Q171.15 0.76 168.85 0.11 166.54-0.54 164.54-1.72 162.54-2.91 160.88-4.55 159.22-6.2 158.04-8.22 156.87-10.23 156.23-12.55 155.58-14.87 155.58-17.36L155.58-17.36Q155.58-19.85 156.23-22.14 156.87-24.44 158.04-26.45 159.22-28.47 160.88-30.11 162.54-31.76 164.54-32.93 166.54-34.11 168.85-34.75 171.15-35.4 173.64-35.4L173.64-35.4Q176.89-35.4 179.89-34.29 182.9-33.18 185.34-31.1L185.34-31.1 181.68-25Q180.09-26.61 178.01-27.53 175.94-28.44 173.64-28.44L173.64-28.44Q171.35-28.44 169.34-27.56 167.32-26.68 165.81-25.18 164.29-23.68 163.42-21.67 162.54-19.65 162.54-17.36L162.54-17.36Q162.54-15.04 163.42-13.01 164.29-10.99 165.81-9.47 167.32-7.96 169.34-7.08 171.35-6.2 173.64-6.2L173.64-6.2Q174.96-6.2 176.21-6.52 177.45-6.84 178.58-7.4L178.58-7.4 178.58-17.36 185.34-17.36ZM214.73-7.01L214.73 0 190.73 0 190.73-35.01 214.73-35.01 214.73-28 197.74-28 197.74-21 209.24-21 209.24-13.99 197.74-13.99 197.74-7.01 214.73-7.01ZM233.65-28L226.64-28 226.64-13.99 233.65-13.99Q235.09-13.99 236.36-14.54 237.63-15.09 238.58-16.04 239.53-16.99 240.08-18.27 240.63-19.56 240.63-21L240.63-21Q240.63-22.44 240.08-23.72 239.53-25 238.58-25.95 237.63-26.9 236.36-27.45 235.09-28 233.65-28L233.65-28ZM226.64-7.01L226.64 0 219.64 0 219.64-35.01 233.65-35.01Q235.58-35.01 237.36-34.51 239.14-34.01 240.69-33.09 242.24-32.18 243.52-30.9 244.81-29.61 245.72-28.05 246.64-26.49 247.14-24.71 247.64-22.92 247.64-21L247.64-21Q247.64-19.19 247.19-17.48 246.74-15.77 245.89-14.23 245.05-12.7 243.83-11.4 242.61-10.11 241.1-9.16L241.1-9.16 244.98 0 237.53 0 234.48-7.06 226.64-7.01ZM286.97-25L286.97 0 279.98 0 279.98-25Q279.98-25.73 279.7-26.37 279.42-27 278.95-27.48 278.47-27.95 277.84-28.22 277.2-28.49 276.47-28.49L276.47-28.49Q275.74-28.49 275.1-28.22 274.47-27.95 273.99-27.48 273.52-27 273.25-26.37 272.98-25.73 272.98-25L272.98-25 272.98 0 265.97 0 265.97-25Q265.97-25.73 265.7-26.37 265.43-27 264.96-27.48 264.48-27.95 263.85-28.22 263.21-28.49 262.48-28.49L262.48-28.49Q261.75-28.49 261.11-28.22 260.48-27.95 260-27.48 259.53-27 259.26-26.37 258.99-25.73 258.99-25L258.99-25 258.99 0 251.98 0 251.98-25Q251.98-27.17 252.8-29.09 253.62-31.01 255.05-32.43 256.47-33.86 258.39-34.68 260.31-35.5 262.48-35.5L262.48-35.5Q264.43-35.5 266.24-34.8 268.05-34.11 269.49-32.79L269.49-32.79Q270.93-34.11 272.72-34.8 274.52-35.5 276.47-35.5L276.47-35.5Q278.64-35.5 280.56-34.68 282.48-33.86 283.9-32.43 285.33-31.01 286.15-29.09 286.97-27.17 286.97-25L286.97-25ZM299.81-13.99L313.82-13.99 313.82-21Q313.82-22.44 313.27-23.72 312.72-25 311.77-25.95 310.82-26.9 309.54-27.45 308.25-28 306.81-28L306.81-28Q305.37-28 304.09-27.45 302.81-26.9 301.86-25.95 300.91-25 300.36-23.72 299.81-22.44 299.81-21L299.81-21 299.81-13.99ZM320.83-21L320.83 0 313.82 0 313.82-7.01 299.81-7.01 299.81 0 292.82 0 292.82-21Q292.82-23.9 293.92-26.45 295.02-29 296.91-30.91 298.81-32.81 301.36-33.91 303.91-35.01 306.81-35.01L306.81-35.01Q309.72-35.01 312.27-33.91 314.82-32.81 316.73-30.91 318.63-29 319.73-26.45 320.83-23.9 320.83-21L320.83-21ZM340.92-28L333.91-28 333.91-13.99 340.92-13.99Q342.36-13.99 343.63-14.54 344.9-15.09 345.85-16.04 346.8-16.99 347.35-18.27 347.9-19.56 347.9-21L347.9-21Q347.9-22.44 347.35-23.72 346.8-25 345.85-25.95 344.9-26.9 343.63-27.45 342.36-28 340.92-28L340.92-28ZM333.91-7.01L333.91 0 326.9 0 326.9-35.01 340.92-35.01Q342.85-35.01 344.63-34.51 346.41-34.01 347.96-33.09 349.51-32.18 350.79-30.9 352.07-29.61 352.99-28.05 353.91-26.49 354.41-24.71 354.91-22.92 354.91-21L354.91-21Q354.91-19.19 354.45-17.48 354-15.77 353.16-14.23 352.32-12.7 351.1-11.4 349.88-10.11 348.36-9.16L348.36-9.16 352.25 0 344.8 0 341.75-7.06 333.91-7.01ZM373.58-28L373.58 0 366.6 0 366.6-28 356.08-28 356.08-35.01 384.08-35.01 384.08-28 373.58-28Z" opacity="1" transform="matrix(1,0,0,1,0,0)" fill="#ffffff" class="wordmark-text-0" data-fill-palette-color="primary" id="text-0"></path></svg></g></svg></g><g transform="matrix(1,0,0,1,178.55863288665444,28.617908569261996)"><svg viewBox="0 0 65.87272711334556 14.122856707233064" height="14.122856707233064" width="65.87272711334556"><g transform="matrix(1,0,0,1,0,0)"><svg width="65.87272711334556" viewBox="1.7 -37.7 226.43 48.550000000000004" height="14.122856707233064" data-palette-color="#ffffff"><path d="M12.35-27.15Q14.5-27.15 16.25-26.43 18-25.7 19.6-24.15L19.6-24.15 16.95-20.65Q15.85-21.55 14.88-21.98 13.9-22.4 12.75-22.4L12.75-22.4Q10.5-22.4 9.35-20.28 8.2-18.15 8.2-13.1L8.2-13.1Q8.2-8.2 9.38-6.2 10.55-4.2 12.75-4.2L12.75-4.2Q13.85-4.2 14.75-4.6 15.65-5 16.85-5.85L16.85-5.85 19.6-2.3Q16.4 0.75 12.45 0.75L12.45 0.75Q7.35 0.75 4.53-2.73 1.7-6.2 1.7-13L1.7-13Q1.7-17.4 3-20.6 4.3-23.8 6.73-25.48 9.15-27.15 12.35-27.15L12.35-27.15ZM32.05-27.15Q37.05-27.15 39.82-23.65 42.6-20.15 42.6-13.25L42.6-13.25Q42.6-6.65 39.8-2.95 37 0.75 32.05 0.75L32.05 0.75Q27.1 0.75 24.3-2.88 21.5-6.5 21.5-13.25L21.5-13.25Q21.5-19.95 24.3-23.55 27.1-27.15 32.05-27.15L32.05-27.15ZM32.05-22.5Q29.9-22.5 28.9-20.38 27.9-18.25 27.9-13.25L27.9-13.25Q27.9-8.2 28.9-6.08 29.9-3.95 32.05-3.95L32.05-3.95Q34.2-3.95 35.2-6.08 36.2-8.2 36.2-13.25L36.2-13.25Q36.2-18.3 35.2-20.4 34.2-22.5 32.05-22.5L32.05-22.5ZM52.75 0.75Q50.05 0.75 48.47-0.93 46.9-2.6 46.9-5.4L46.9-5.4 46.9-37.05 53.05-37.7 53.05-5.65Q53.05-5 53.34-4.6 53.65-4.2 54.25-4.2L54.25-4.2Q54.59-4.2 54.92-4.3 55.25-4.4 55.34-4.4L55.34-4.4 56.55-0.2Q54.84 0.75 52.75 0.75L52.75 0.75ZM65.19 0.75Q62.49 0.75 60.92-0.93 59.34-2.6 59.34-5.4L59.34-5.4 59.34-37.05 65.49-37.7 65.49-5.65Q65.49-5 65.79-4.6 66.09-4.2 66.69-4.2L66.69-4.2Q67.04-4.2 67.37-4.3 67.69-4.4 67.79-4.4L67.79-4.4 68.99-0.2Q67.29 0.75 65.19 0.75L65.19 0.75ZM90.89-13.85Q90.89-13.4 90.74-11.3L90.74-11.3 77.09-11.3Q77.29-7.2 78.52-5.58 79.74-3.95 81.99-3.95L81.99-3.95Q83.54-3.95 84.79-4.48 86.04-5 87.49-6.15L87.49-6.15 90.04-2.65Q86.54 0.75 81.64 0.75L81.64 0.75Q76.44 0.75 73.67-2.85 70.89-6.45 70.89-13L70.89-13Q70.89-19.55 73.54-23.35 76.19-27.15 81.04-27.15L81.04-27.15Q85.69-27.15 88.29-23.78 90.89-20.4 90.89-13.85L90.89-13.85ZM84.89-15.3L84.89-15.65Q84.89-19.4 83.99-21.13 83.09-22.85 81.09-22.85L81.09-22.85Q79.24-22.85 78.27-21.18 77.29-19.5 77.09-15.3L77.09-15.3 84.89-15.3ZM113.14-29.85L114.69-25.1Q113.64-24.6 112.16-24.4 110.69-24.2 108.49-24.2L108.49-24.2Q110.59-23.2 111.61-21.53 112.64-19.85 112.64-17.4L112.64-17.4Q112.64-13.4 110.19-10.95 107.74-8.5 103.54-8.5L103.54-8.5Q102.29-8.5 100.99-8.9L100.99-8.9Q100.09-8.15 100.09-6.85L100.09-6.85Q100.09-5.85 100.64-5.35 101.19-4.85 102.69-4.85L102.69-4.85 105.49-4.85Q109.49-4.85 111.84-2.78 114.19-0.7 114.19 2.5L114.19 2.5Q114.19 6.3 111.26 8.58 108.34 10.85 102.94 10.85L102.94 10.85Q97.24 10.85 94.96 8.75 92.69 6.65 92.69 2.6L92.69 2.6 98.14 2.6Q98.14 4.75 99.14 5.65 100.14 6.55 102.99 6.55L102.99 6.55Q105.74 6.55 106.89 5.6 108.04 4.65 108.04 2.9L108.04 2.9Q108.04 1.2 107.09 0.4 106.14-0.4 104.14-0.4L104.14-0.4 102.24-0.4Q98.44-0.4 96.69-1.75 94.94-3.1 94.94-5.45L94.94-5.45Q94.94-6.8 95.66-8.03 96.39-9.25 97.64-10.2L97.64-10.2Q95.59-11.5 94.64-13.3 93.69-15.1 93.69-17.7L93.69-17.7Q93.69-22.05 96.29-24.58 98.89-27.1 103.29-27.1L103.29-27.1Q106.54-27.1 108.66-27.8 110.79-28.5 113.14-29.85L113.14-29.85ZM103.29-23Q101.54-23 100.64-21.75 99.74-20.5 99.74-17.8L99.74-17.8Q99.74-15.25 100.64-13.88 101.54-12.5 103.24-12.5L103.24-12.5Q104.99-12.5 105.84-13.73 106.69-14.95 106.69-17.85L106.69-17.85Q106.69-20.55 105.86-21.78 105.04-23 103.29-23L103.29-23ZM136.29-13.85Q136.29-13.4 136.14-11.3L136.14-11.3 122.49-11.3Q122.69-7.2 123.91-5.58 125.14-3.95 127.39-3.95L127.39-3.95Q128.94-3.95 130.19-4.48 131.44-5 132.89-6.15L132.89-6.15 135.44-2.65Q131.94 0.75 127.04 0.75L127.04 0.75Q121.84 0.75 119.06-2.85 116.29-6.45 116.29-13L116.29-13Q116.29-19.55 118.94-23.35 121.59-27.15 126.44-27.15L126.44-27.15Q131.09-27.15 133.69-23.78 136.29-20.4 136.29-13.85L136.29-13.85ZM130.29-15.3L130.29-15.65Q130.29-19.4 129.39-21.13 128.49-22.85 126.49-22.85L126.49-22.85Q124.64-22.85 123.66-21.18 122.69-19.5 122.49-15.3L122.49-15.3 130.29-15.3ZM164.23-27.15Q166.88-27.15 168.48-25.1 170.08-23.05 170.08-19.6L170.08-19.6 170.08 0 164.03 0 164.03-18.95Q164.03-20.85 163.53-21.68 163.03-22.5 162.08-22.5L162.08-22.5Q160.13-22.5 158.33-18.8L158.33-18.8 158.33 0 152.33 0 152.33-18.95Q152.33-22.5 150.43-22.5L150.43-22.5Q148.38-22.5 146.63-18.8L146.63-18.8 146.63 0 140.58 0 140.58-26.45 145.93-26.45 146.33-23.05Q148.93-27.15 152.58-27.15L152.58-27.15Q154.43-27.15 155.78-26 157.13-24.85 157.83-22.75L157.83-22.75Q160.48-27.15 164.23-27.15L164.23-27.15ZM192.48-6.4Q192.48-5.1 192.83-4.48 193.18-3.85 193.98-3.45L193.98-3.45 192.73 0.65Q190.68 0.4 189.46-0.45 188.23-1.3 187.63-3.05L187.63-3.05Q185.33 0.75 181.18 0.75L181.18 0.75Q177.88 0.75 175.93-1.48 173.98-3.7 173.98-7.4L173.98-7.4Q173.98-11.7 176.66-13.95 179.33-16.2 184.43-16.2L184.43-16.2 186.48-16.2 186.48-18.05Q186.48-20.55 185.61-21.58 184.73-22.6 182.78-22.6L182.78-22.6Q180.43-22.6 176.93-21.3L176.93-21.3 175.53-25.3Q177.53-26.2 179.68-26.68 181.83-27.15 183.78-27.15L183.78-27.15Q192.48-27.15 192.48-18.35L192.48-18.35 192.48-6.4ZM182.83-3.7Q185.23-3.7 186.48-7L186.48-7 186.48-12.55 185.03-12.55Q182.48-12.55 181.31-11.4 180.13-10.25 180.13-7.85L180.13-7.85Q180.13-5.8 180.83-4.75 181.53-3.7 182.83-3.7L182.83-3.7ZM209.93-27.1Q211.08-27.1 211.98-26.75L211.98-26.75 210.98-20.85Q209.98-21.1 209.13-21.1L209.13-21.1Q207.23-21.1 206.13-19.45 205.03-17.8 204.43-14.55L204.43-14.55 204.43 0 198.28 0 198.28-26.45 203.63-26.45 204.08-21.85Q205.93-27.1 209.93-27.1L209.93-27.1ZM225.98-5L228.13-1.2Q225.68 0.75 222.38 0.75L222.38 0.75Q218.93 0.75 217.13-1.23 215.33-3.2 215.33-6.6L215.33-6.6 215.33-22 212.23-22 212.23-26.45 215.33-26.45 215.33-32.3 221.48-33.05 221.48-26.45 226.48-26.45 225.88-22 221.48-22 221.48-6.6Q221.48-4.2 223.53-4.2L223.53-4.2Q224.18-4.2 224.68-4.38 225.18-4.55 225.98-5L225.98-5Z" opacity="1" transform="matrix(1,0,0,1,0,0)" fill="#ffffff" class="slogan-text-1" data-fill-palette-color="secondary" id="text-1"></path></svg></g></svg></g></svg></g></svg></g></svg></g></svg></g></svg></g><path d="M187.611 96.23L187.611 30.861 2.133 30.861 2.133 216.339 187.611 216.339 187.611 150.97 185.523 150.97 185.523 214.251 4.221 214.251 4.221 32.949 185.523 32.949 185.523 96.23Z" fill="#ffffff" stroke="transparent" data-fill-palette-color="tertiary"></path></svg></g><defs></defs></svg><rect width="395.52" height="247.2" fill="none" stroke="none" visibility="hidden"></rect></g></svg></g></svg>