<svg xmlns="http://www.w3.org/2000/svg" version="1.1" xmlns:xlink="http://www.w3.org/1999/xlink" xmlns:svgjs="http://svgjs.dev/svgjs" width="2000" height="1020" viewBox="0 0 2000 1020"><g transform="matrix(1,0,0,1,-1.2121140347846904,-0.770221835748373)"><svg viewBox="0 0 396 202" data-background-color="#ffffff" preserveAspectRatio="xMidYMid meet" height="1020" width="2000" xmlns="http://www.w3.org/2000/svg" xmlns:xlink="http://www.w3.org/1999/xlink"><g id="tight-bounds" transform="matrix(1,0,0,1,0.23999857888736642,0.1525341282560504)"><svg viewBox="0 0 395.52 201.6949317434879" height="201.6949317434879" width="395.52"><g><svg viewBox="0 0 395.52 201.6949317434879" height="201.6949317434879" width="395.52"><g transform="matrix(1,0,0,1,0,102.53565140185711)"><svg viewBox="0 0 395.52 99.15928034163079" height="99.15928034163079" width="395.52"><g id="textblocktransform"><svg viewBox="0 0 395.52 99.15928034163079" height="99.15928034163079" width="395.52" id="textblock"><g><svg viewBox="0 0 395.52 56.19495860025088" height="56.19495860025088" width="395.52"><g transform="matrix(1,0,0,1,0,0)"><svg width="395.52" viewBox="1.4312779404672964 -18.074105452995433 338.7790689645941 48.1332763489416" height="56.19495860025088" data-palette-color="#000000"><path d="M25.888-11.042v0l0.402-0.636c-0.821-0.492-1.728-0.906-2.722-1.242-0.994-0.336-1.928-0.572-2.804-0.708v0 0 0 0c-2.635-0.409-5.027-0.166-7.177 0.729-2.149 0.895-3.936 2.345-5.36 4.35-1.424 2.005-2.36 4.454-2.809 7.346v0 0 0 0c-0.447 2.886-0.295 5.493 0.457 7.823 0.752 2.329 2.018 4.236 3.798 5.719 1.779 1.49 3.987 2.44 6.622 2.849v0 0 0 0c0.876 0.136 1.854 0.206 2.932 0.212 1.08-0.001 2.05-0.1 2.91-0.298v0l-0.191-0.728c-0.784 0.141-1.693 0.216-2.726 0.225-1.026 0.003-1.96-0.061-2.804-0.192v0 0 0 0c-2.503-0.388-4.593-1.292-6.268-2.713-1.669-1.419-2.85-3.221-3.544-5.406-0.693-2.185-0.828-4.642-0.405-7.37v0 0 0 0c0.423-2.727 1.298-5.044 2.626-6.949 1.328-1.906 3.002-3.282 5.022-4.129 2.027-0.846 4.292-1.075 6.796-0.687v0 0 0 0c0.843 0.131 1.735 0.36 2.676 0.688 0.947 0.329 1.804 0.701 2.569 1.117zM26.291-11.03l3.398-2.013-0.393-0.658-3.399 2.013c-0.071 0.023-0.124 0.082-0.159 0.177-0.027 0.09-0.032 0.187-0.015 0.292v0l2.13 6.169 0.743-0.29-2.131-6.159c-0.023-0.071-0.078 0.001-0.165 0.217-0.082 0.223-0.085 0.307-0.009 0.252zM22.358 14.984l3.912-5.323-0.621-0.501-3.913 5.333c-0.047 0.087-0.071 0.175-0.071 0.262 0.007 0.082 0.039 0.161 0.094 0.238v0l2.645 2.849 0.575-0.508-2.645-2.849c-0.056-0.076-0.078 0.001-0.066 0.232 0.017 0.239 0.047 0.328 0.09 0.267zM25.081 17.653v0l1.269-8.182c0.026-0.165-0.028-0.298-0.161-0.399-0.133-0.102-0.275-0.1-0.426 0.005v0c-1.36 0.855-2.814 1.486-4.361 1.893-1.541 0.409-3.089 0.493-4.644 0.252v0c-2.503-0.388-4.398-1.637-5.683-3.745-1.279-2.108-1.666-4.785-1.163-8.033v0c0.509-3.281 1.685-5.733 3.529-7.356 1.844-1.623 4.018-2.241 6.521-1.853v0c1.555 0.241 3.027 0.817 4.418 1.727 1.389 0.917 2.575 1.951 3.556 3.102v0c0.112 0.146 0.247 0.19 0.405 0.134 0.157-0.057 0.249-0.167 0.274-0.332v0l1.269-8.183c0.01-0.066-0.003-0.132-0.04-0.198-0.042-0.074-0.094-0.133-0.155-0.176v0c-1.113-0.739-2.385-1.368-3.816-1.887-1.43-0.525-2.909-0.906-4.437-1.143v0c-3.505-0.543-6.639-0.257-9.403 0.859-2.765 1.123-5.044 2.898-6.837 5.325-1.788 2.435-2.948 5.372-3.481 8.811v0c-0.533 3.439-0.314 6.573 0.657 9.401 0.979 2.823 2.619 5.169 4.92 7.037 2.3 1.875 5.202 3.084 8.707 3.628v0c1.528 0.237 3.053 0.322 4.575 0.254 1.521-0.061 2.923-0.275 4.208-0.643v0c0.071-0.023 0.138-0.063 0.201-0.121 0.056-0.059 0.089-0.118 0.098-0.177zM25.569 9.35l-1.269 8.182 0.301-0.307c-1.253 0.339-2.613 0.536-4.079 0.592-1.472 0.055-2.94-0.031-4.402-0.258v0c-3.34-0.518-6.121-1.664-8.342-3.439-2.214-1.774-3.777-4.009-4.687-6.708-0.91-2.705-1.108-5.711-0.596-9.017v0c0.514-3.314 1.616-6.135 3.306-8.464 1.69-2.329 3.861-4.019 6.515-5.071 2.659-1.052 5.659-1.318 8.999-0.801v0c1.463 0.227 2.887 0.589 4.273 1.088 1.38 0.497 2.616 1.097 3.708 1.8v0l-0.193-0.385-1.269 8.183 0.679-0.199c-1.039-1.22-2.289-2.311-3.753-3.274-1.464-0.956-3.023-1.562-4.677-1.818v0c-1.785-0.277-3.447-0.069-4.984 0.624-1.538 0.693-2.826 1.822-3.865 3.388-1.039 1.566-1.74 3.518-2.102 5.857v0c-0.363 2.339-0.278 4.403 0.254 6.192 0.538 1.797 1.434 3.258 2.69 4.384 1.256 1.126 2.776 1.827 4.561 2.104v0c1.654 0.256 3.303 0.171 4.948-0.255 1.645-0.426 3.168-1.094 4.571-2.003v0zM45.142 18.244v0c-2.415-0.298-4.465-1.135-6.148-2.512-1.683-1.383-2.911-3.167-3.683-5.351-0.772-2.178-0.99-4.636-0.651-7.375v0 0 0 0c0.338-2.739 1.146-5.071 2.425-6.996 1.279-1.931 2.902-3.347 4.866-4.246 1.964-0.893 4.154-1.19 6.569-0.892v0 0 0 0c2.408 0.297 4.455 1.127 6.141 2.491 1.686 1.363 2.916 3.127 3.69 5.291 0.781 2.165 1.002 4.617 0.664 7.357v0 0 0 0c-0.338 2.739-1.15 5.071-2.435 6.994-1.279 1.931-2.904 3.363-4.873 4.296-1.968 0.926-4.157 1.24-6.565 0.943v0 0zM45.046 19.028v0 0 0 0c2.541 0.313 4.855-0.012 6.942-0.977 2.087-0.965 3.821-2.471 5.202-4.517 1.374-2.047 2.241-4.523 2.599-7.427v0 0 0 0c0.358-2.898 0.117-5.494-0.722-7.787-0.846-2.288-2.164-4.153-3.954-5.597-1.79-1.443-3.955-2.322-6.496-2.635v0 0 0 0c-2.541-0.313-4.857 0.005-6.95 0.956-2.085 0.945-3.814 2.435-5.186 4.469-1.379 2.033-2.248 4.499-2.605 7.396v0 0 0 0c-0.358 2.905-0.117 5.517 0.725 7.838 0.836 2.32 2.148 4.201 3.939 5.645 1.797 1.444 3.965 2.323 6.506 2.636zM45.522 15.168v0c-2.541-0.313-4.468-1.519-5.781-3.615-1.313-2.097-1.766-4.792-1.36-8.088v0c0.407-3.295 1.499-5.783 3.279-7.465 1.779-1.681 3.939-2.365 6.48-2.051v0c2.541 0.313 4.47 1.502 5.787 3.565 1.317 2.063 1.773 4.743 1.366 8.038v0c-0.407 3.295-1.502 5.8-3.285 7.514-1.783 1.715-3.945 2.415-6.486 2.102zM44.755 21.381v0c-3.097-0.382-5.753-1.449-7.968-3.2-2.216-1.745-3.846-3.971-4.889-6.679-1.036-2.707-1.353-5.692-0.95-8.954v0c0.402-3.262 1.434-6.07 3.095-8.424 1.668-2.36 3.789-4.11 6.36-5.251 2.572-1.14 5.407-1.519 8.504-1.137v0c3.097 0.382 5.754 1.439 7.972 3.17 2.218 1.731 3.849 3.944 4.893 6.639 1.039 2.687 1.357 5.662 0.955 8.924v0c-0.402 3.262-1.435 6.08-3.099 8.454-1.67 2.373-3.792 4.137-6.366 5.29-2.575 1.16-5.41 1.549-8.507 1.168zM45.425 15.952v0c2.739 0.338 5.088-0.407 7.047-2.234 1.965-1.826 3.167-4.516 3.605-8.069v0c0.434-3.52-0.081-6.395-1.545-8.625-1.457-2.235-3.555-3.522-6.295-3.86v0c-2.739-0.338-5.089 0.39-7.05 2.184-1.954 1.794-3.151 4.468-3.59 8.02v0c-0.438 3.553 0.07 6.454 1.526 8.703 1.462 2.249 3.563 3.543 6.302 3.881zM44.659 22.165v0c3.229 0.398 6.191-0.009 8.886-1.221 2.695-1.206 4.923-3.047 6.687-5.523 1.764-2.483 2.857-5.434 3.279-8.855v0c0.422-3.421 0.078-6.54-1.032-9.357-1.11-2.817-2.826-5.131-5.149-6.943-2.322-1.811-5.098-2.916-8.326-3.314v0c-3.229-0.398-6.19-0.001-8.883 1.191-2.7 1.192-4.927 3.019-6.682 5.483-1.762 2.463-2.853 5.405-3.275 8.825v0c-0.422 3.421-0.079 6.55 1.028 9.387 1.102 2.83 2.816 5.157 5.144 6.982 2.32 1.831 5.094 2.946 8.323 3.345zM66.014 24.006l5.153-2.779-0.323-0.724-5.164 2.788zM71.222 21.182l3.989-2.889-0.443-0.634-3.979 2.889zM73.783-6.53l-4.561-3.504-0.463 0.65 4.571 3.504c0.063 0.039 0.135 0.063 0.214 0.07 0.08 0.008 0.138-0.004 0.174-0.033v0l5.096-2.594-0.323-0.723-5.096 2.593c-0.07 0.027-0.005 0.05 0.194 0.069 0.192 0.018 0.257 0.007 0.194-0.032zM82.543 21.807l2.704 3.921 0.635-0.443-2.705-3.911c-0.027-0.07-0.051 0.009-0.073 0.234-0.022 0.232-0.013 0.317 0.027 0.254v0l4.47-4.38-0.541-0.543-4.471 4.38c-0.073 0.06-0.113 0.137-0.122 0.229-0.009 0.1 0.016 0.186 0.076 0.259zM71.398 20.907l2.552-27.08-0.786-0.074-2.552 27.08c-0.013 0.133 0.018 0.233 0.092 0.3 0.08 0.074 0.17 0.116 0.27 0.126v0l11.854 0.725 0.074-0.786-11.854-0.726c-0.133-0.013-0.112 0.09 0.061 0.307 0.18 0.218 0.277 0.26 0.289 0.128zM65.81 24.037v0l19.713 1.857c0.1 0.009 0.185-0.013 0.257-0.066 0.073-0.06 0.13-0.138 0.173-0.235v0l1.767-8.301c0.048-0.156 0.004-0.291-0.133-0.404-0.137-0.113-0.294-0.111-0.473 0.006v0c-0.598 0.372-1.335 0.664-2.212 0.876-0.878 0.219-2.088 0.312-3.632 0.281-1.55-0.032-3.632-0.188-6.244-0.468v0l0.351 0.435c0.055-1.22 0.147-2.698 0.277-4.434 0.13-1.735 0.309-3.811 0.537-6.227v0c0.275-2.914 0.523-5.301 0.745-7.162 0.228-1.853 0.436-3.351 0.624-4.491 0.187-1.134 0.401-2.021 0.643-2.662 0.24-0.634 0.498-1.168 0.774-1.604v0c0.082-0.16 0.095-0.299 0.039-0.418-0.056-0.119-0.167-0.186-0.332-0.202v0l-9.658-0.91c-0.133-0.013-0.244 0.034-0.334 0.139-0.097 0.105-0.12 0.243-0.07 0.415v0c0.222 0.483 0.383 1.057 0.481 1.723 0.104 0.673 0.142 1.584 0.114 2.733-0.022 1.156-0.097 2.666-0.226 4.528-0.129 1.869-0.331 4.261-0.606 7.175v0c-0.29 3.073-0.551 5.596-0.783 7.57-0.233 1.974-0.449 3.56-0.65 4.76-0.193 1.2-0.405 2.128-0.634 2.783-0.222 0.655-0.49 1.216-0.801 1.682v0c-0.079 0.126-0.081 0.26-0.008 0.401 0.068 0.134 0.168 0.207 0.301 0.22zM85.596 25.118l-19.713-1.858 0.284 0.619c0.312-0.466 0.58-1.043 0.806-1.732 0.232-0.688 0.463-1.641 0.691-2.858 0.229-1.217 0.465-2.836 0.708-4.854 0.237-2.02 0.504-4.6 0.8-7.74v0c0.281-2.98 0.488-5.428 0.622-7.344 0.127-1.917 0.189-3.461 0.185-4.633-0.003-1.172-0.056-2.101-0.159-2.787-0.096-0.685-0.254-1.286-0.473-1.802v0l-0.394 0.555 9.657 0.91-0.283-0.619c-0.279 0.469-0.539 1.031-0.781 1.684-0.242 0.653-0.475 1.556-0.697 2.707-0.222 1.151-0.45 2.68-0.684 4.586-0.227 1.907-0.48 4.351-0.761 7.331v0c-0.228 2.416-0.407 4.492-0.536 6.227-0.13 1.735-0.219 3.214-0.267 4.434v0c-0.012 0.126 0.019 0.226 0.092 0.3 0.073 0.074 0.16 0.116 0.259 0.125v0c2.745 0.292 4.917 0.44 6.517 0.444 1.6 0.003 2.856-0.109 3.769-0.338 0.912-0.229 1.682-0.545 2.309-0.948v0l-0.605-0.398-1.766 8.29zM90.6 26.216l5.087-2.898-0.34-0.716-5.098 2.907zM95.741 23.272l3.92-2.98-0.457-0.624-3.91 2.981zM97.658-4.492l-4.642-3.397-0.447 0.66 4.651 3.398c0.064 0.038 0.136 0.06 0.216 0.065 0.08 0.006 0.138-0.007 0.173-0.038v0l5.034-2.711-0.34-0.715-5.034 2.71c-0.069 0.029-0.004 0.05 0.196 0.064 0.193 0.014 0.257 0.002 0.193-0.036zM107.073 23.634l2.795 3.857 0.624-0.457-2.795-3.847c-0.029-0.069-0.051 0.01-0.067 0.236-0.016 0.233-0.006 0.317 0.032 0.253v0l4.368-4.483-0.554-0.53-4.368 4.482c-0.071 0.062-0.11 0.139-0.117 0.232-0.007 0.1 0.02 0.185 0.082 0.257zM95.911 22.993l1.922-27.132-0.788-0.056-1.922 27.132c-0.009 0.133 0.024 0.232 0.099 0.298 0.082 0.073 0.172 0.112 0.272 0.12v0l11.868 0.45 0.056-0.788-11.868-0.45c-0.133-0.009-0.11 0.092 0.069 0.305 0.185 0.214 0.283 0.254 0.292 0.121zM90.397 26.252v0l19.75 1.399c0.1 0.007 0.185-0.017 0.256-0.072 0.071-0.062 0.127-0.141 0.167-0.239v0l1.574-8.339c0.045-0.157-0.003-0.291-0.142-0.401-0.139-0.11-0.297-0.105-0.473 0.016v0c-0.589 0.386-1.319 0.695-2.191 0.928-0.872 0.239-2.081 0.36-3.625 0.364-1.551 0.004-3.635-0.104-6.252-0.322v0l0.36 0.426c0.026-1.221 0.084-2.701 0.174-4.439 0.09-1.738 0.22-3.817 0.392-6.237v0c0.207-2.919 0.4-5.312 0.579-7.177 0.185-1.858 0.358-3.36 0.52-4.505 0.161-1.138 0.354-2.03 0.58-2.676 0.226-0.639 0.471-1.18 0.737-1.622v0c0.078-0.162 0.088-0.301 0.03-0.419-0.058-0.118-0.171-0.183-0.338-0.194v0l-9.675-0.686c-0.133-0.009-0.243 0.04-0.331 0.147-0.094 0.107-0.114 0.246-0.06 0.417v0c0.233 0.478 0.407 1.048 0.52 1.711 0.12 0.67 0.179 1.58 0.178 2.73 0.005 1.157-0.035 2.668-0.121 4.532-0.086 1.872-0.232 4.268-0.439 7.187v0c-0.218 3.079-0.421 5.608-0.608 7.586-0.187 1.978-0.367 3.57-0.539 4.774-0.166 1.205-0.355 2.137-0.569 2.797-0.207 0.66-0.461 1.227-0.762 1.7v0c-0.076 0.128-0.075 0.262 0.002 0.402 0.071 0.132 0.173 0.203 0.306 0.212zM110.202 26.873l-19.75-1.399 0.297 0.612c0.301-0.473 0.556-1.057 0.766-1.75 0.216-0.693 0.424-1.651 0.625-2.873 0.2-1.222 0.399-2.846 0.595-4.87 0.19-2.025 0.397-4.61 0.62-7.756v0c0.212-2.986 0.362-5.438 0.451-7.356 0.083-1.919 0.108-3.464 0.078-4.636-0.031-1.172-0.105-2.099-0.224-2.783-0.112-0.683-0.284-1.28-0.515-1.791v0l-0.38 0.564 9.675 0.686-0.297-0.612c-0.268 0.476-0.515 1.043-0.742 1.701-0.227 0.659-0.438 1.566-0.634 2.722-0.196 1.156-0.388 2.689-0.577 4.601-0.182 1.912-0.379 4.361-0.591 7.347v0c-0.172 2.421-0.302 4.5-0.392 6.238-0.09 1.738-0.144 3.218-0.164 4.439v0c-0.009 0.126 0.024 0.226 0.099 0.298 0.075 0.072 0.163 0.112 0.263 0.119v0c2.751 0.228 4.926 0.326 6.525 0.292 1.6-0.034 2.853-0.175 3.76-0.426 0.907-0.25 1.669-0.584 2.286-1.001v0l-0.614-0.384-1.573 8.33zM133.973-1.345v0l0.137-0.784c-1.181-0.149-2.549-0.287-4.105-0.414-1.556-0.12-3.096-0.233-4.619-0.338-1.523-0.105-2.859-0.168-4.005-0.189v0c-0.133-0.006-0.235 0.029-0.306 0.105-0.071 0.083-0.108 0.172-0.112 0.265v0l-1.292 27.37c-0.004 0.093 0.025 0.185 0.087 0.274 0.063 0.083 0.161 0.128 0.294 0.134v0c1.177 0.089 2.522 0.159 4.034 0.211 1.506 0.058 3.022 0.089 4.551 0.095 1.528 0.005 2.887-0.014 4.077-0.058v0l-0.063-0.784c-1.156 0.039-2.489 0.056-3.997 0.051-1.515-0.005-3.025-0.033-4.531-0.083-1.512-0.058-2.857-0.132-4.034-0.221v0c-0.1-0.005-0.064 0.087 0.107 0.276 0.171 0.188 0.259 0.236 0.264 0.142v0l1.292-27.369c0.004-0.093-0.088-0.054-0.276 0.117-0.188 0.171-0.232 0.259-0.133 0.264v0c1.147 0.021 2.482 0.084 4.006 0.189 1.523 0.105 3.056 0.218 4.599 0.337 1.536 0.119 2.878 0.256 4.025 0.41zM120.721 10.904l11.367 0.537 0.037-0.789-11.367-0.537zM120.296 24.99l3.842-2.922-0.471-0.613-3.833 2.922c0 0 0.007-0.006 0.021-0.019 0.021-0.019 0.031-0.029 0.032-0.028v0l-5.019 2.826 0.367 0.698 5.009-2.817c0.033 0.002 0.05-0.004 0.051-0.017 0.001-0.02 0.001-0.03 0.001-0.03zM121.568-3.011l-4.72-3.287-0.432 0.671 4.73 3.286c0 0-0.01-0.01-0.029-0.031-0.013-0.014-0.019-0.021-0.019-0.021v0l3.54 3.271 0.527-0.566-3.549-3.271c0 0 0-0.01 0.001-0.03 0.001-0.013-0.016-0.021-0.049-0.022zM134.32-1.478l3.216-3.242-0.575-0.528-3.207 3.252c-0.035 0.032-0.062 0.104-0.081 0.217-0.026 0.119-0.023 0.209 0.008 0.27v0l2.854 4.43 0.712-0.457-2.854-4.429c-0.063-0.07-0.107 0.012-0.132 0.244-0.031 0.225-0.011 0.306 0.059 0.243zM132.96 25.197l4.261-4.584-0.566-0.517-4.26 4.574c-0.07 0.063-0.107 0.145-0.112 0.245-0.005 0.1 0.025 0.185 0.088 0.254v0l2.896 3.541 0.613-0.472-2.896-3.54c-0.064-0.063-0.091 0.019-0.082 0.246 0.002 0.234 0.022 0.318 0.058 0.253zM132.385 11.305l3.247-3.892-0.576-0.517-3.237 3.891c-0.07 0.063-0.107 0.145-0.112 0.245-0.004 0.093 0.025 0.175 0.089 0.245v0l2.858 4.129 0.623-0.461-2.869-4.13c-0.03-0.068-0.051 0.014-0.062 0.248-0.011 0.226 0.002 0.307 0.039 0.242zM120.965 10.816l3.636-2.782-0.462-0.613-3.635 2.782c-0.103 0.062-0.158 0.159-0.164 0.293-0.006 0.127 0.039 0.225 0.136 0.296v0l3.356 3.122 0.518-0.566-3.357-3.122c-0.097-0.071-0.151 0.026-0.164 0.293-0.012 0.26 0.033 0.359 0.136 0.297zM115.033 27.895v0l20.517 0.968c0.1 0.005 0.185-0.021 0.254-0.078 0.07-0.063 0.124-0.144 0.162-0.242v0l1.365-8.125c0.041-0.165-0.009-0.297-0.152-0.398-0.142-0.107-0.299-0.098-0.472 0.028v0c-0.581 0.433-1.321 0.775-2.22 1.027-0.9 0.251-2.171 0.405-3.816 0.46-1.644 0.056-3.894 0-6.75-0.168v0l0.371 0.408c0.02-0.987 0.044-2.144 0.074-3.471 0.03-1.333 0.07-2.887 0.12-4.659v0l-0.419 0.38c2.597 0.123 4.573 0.249 5.929 0.38 1.356 0.124 2.377 0.269 3.063 0.435 0.68 0.166 1.243 0.389 1.69 0.671v0c0.163 0.074 0.303 0.074 0.421 0 0.117-0.081 0.179-0.185 0.185-0.312v0l0.378-8.021c0.008-0.166-0.043-0.286-0.153-0.358-0.11-0.072-0.25-0.079-0.42-0.019v0c-0.472 0.245-1.055 0.424-1.747 0.538-0.699 0.114-1.736 0.162-3.11 0.143-1.381-0.012-3.354-0.062-5.92-0.149v0l0.382 0.408c0.106-1.537 0.203-2.887 0.291-4.05 0.088-1.164 0.167-2.188 0.235-3.073v0l-0.408 0.371c2.793 0.065 4.949 0.207 6.467 0.426 1.518 0.225 2.658 0.469 3.419 0.732 0.761 0.27 1.395 0.563 1.901 0.881v0c0.163 0.074 0.304 0.071 0.421-0.011 0.117-0.075 0.179-0.178 0.185-0.311v0l0.362-7.672c0.005-0.1-0.031-0.192-0.107-0.275-0.076-0.084-0.164-0.128-0.264-0.133v0l-20.617-0.973c-0.133-0.006-0.242 0.045-0.328 0.155-0.092 0.109-0.109 0.248-0.05 0.418v0c0.245 0.472 0.432 1.038 0.561 1.698 0.135 0.667 0.216 1.575 0.242 2.725 0.032 1.156 0.028 2.668-0.014 4.534-0.042 1.873-0.132 4.272-0.27 7.195v0c-0.146 3.083-0.288 5.616-0.428 7.598-0.14 1.982-0.282 3.577-0.427 4.786-0.137 1.208-0.305 2.145-0.503 2.809-0.192 0.665-0.432 1.238-0.721 1.718v0c-0.073 0.13-0.069 0.264 0.011 0.401 0.074 0.13 0.177 0.199 0.31 0.205zM135.587 28.084l-20.517-0.968 0.312 0.605c0.29-0.48 0.531-1.069 0.724-1.768 0.2-0.698 0.385-1.66 0.557-2.887 0.171-1.227 0.332-2.854 0.481-4.882 0.142-2.029 0.288-4.618 0.436-7.769v0c0.141-2.99 0.234-5.445 0.278-7.365 0.037-1.92 0.027-3.466-0.031-4.636-0.058-1.171-0.155-2.096-0.29-2.777-0.128-0.68-0.314-1.273-0.556-1.778v0l-0.368 0.573 20.617 0.973-0.371-0.408-0.362 7.672 0.605-0.312c-0.546-0.319-1.215-0.621-2.009-0.906-0.787-0.284-1.966-0.547-3.537-0.787-1.564-0.241-3.776-0.395-6.636-0.464v0c-0.1-0.005-0.191 0.024-0.274 0.087-0.083 0.063-0.128 0.161-0.134 0.294v0c-0.075 0.884-0.157 1.908-0.245 3.072-0.088 1.164-0.185 2.514-0.292 4.051v0c-0.005 0.1 0.031 0.192 0.108 0.275 0.082 0.091 0.17 0.138 0.263 0.143v0c2.038 0.096 3.687 0.147 4.948 0.154 1.267 0.013 2.29-0.012 3.067-0.076 0.777-0.063 1.399-0.151 1.865-0.262 0.465-0.105 0.899-0.248 1.301-0.429v0l-0.573-0.368-0.379 8.021 0.606-0.322c-0.384-0.212-0.802-0.395-1.255-0.549-0.453-0.155-1.064-0.291-1.833-0.407-0.769-0.116-1.791-0.231-3.067-0.345-1.276-0.107-2.917-0.208-4.921-0.303v0c-0.093-0.004-0.185 0.031-0.276 0.107-0.084 0.083-0.128 0.171-0.132 0.264v0c-0.05 1.773-0.09 3.326-0.12 4.66-0.029 1.327-0.051 2.484-0.064 3.471v0c-0.006 0.133 0.029 0.235 0.106 0.305 0.077 0.07 0.165 0.108 0.265 0.113v0c2.982 0.174 5.322 0.225 7.02 0.151 1.698-0.067 3.015-0.241 3.95-0.524 0.934-0.283 1.706-0.657 2.315-1.122v0l-0.623-0.38-1.364 8.125zM166.087-0.134l3.097-2.564-0.479-0.599-3.107 2.553c-0.061 0.032-0.102 0.098-0.124 0.198-0.015 0.1-0.007 0.2 0.025 0.301v0l2.945 5.715 0.697-0.377-2.945-5.725c-0.032-0.067-0.077 0.015-0.135 0.247-0.051 0.226-0.042 0.309 0.026 0.251zM166.056 14.548l-4.573-3.145-0.402 0.682 4.573 3.145c0.066 0.035 0.139 0.043 0.219 0.024 0.08-0.012 0.154-0.034 0.222-0.066v0l4.195-2.983-0.479-0.599-4.195 2.983c-0.034 0.033 0.049 0.041 0.249 0.025 0.194-0.01 0.257-0.032 0.191-0.066zM165.686-0.102v0l0.313-0.684c-1.111-0.507-2.304-0.896-3.579-1.166-1.275-0.27-2.486-0.416-3.633-0.437v0 0 0 0c-2.793-0.051-5.234 0.517-7.323 1.705-2.096 1.195-3.737 2.882-4.924 5.06-1.194 2.178-1.817 4.731-1.871 7.657v0 0 0 0c-0.053 2.853 0.461 5.383 1.541 7.59 1.073 2.207 2.608 3.952 4.604 5.236 1.997 1.284 4.375 1.951 7.134 2.001v0 0 0 0c1.346 0.025 2.696-0.097 4.048-0.365 1.352-0.275 2.69-0.694 4.014-1.257v0c0.067-0.032 0.125-0.081 0.172-0.146 0.055-0.066 0.082-0.132 0.084-0.199v0c0.014-2.56 0.025-4.63 0.034-6.21 0.016-1.573-0.001-2.837-0.05-3.792v0l-0.79-0.014c0.049 0.954 0.069 2.218 0.06 3.791-0.016 1.58-0.031 3.65-0.044 6.211v0c-0.001 0.067 0.056 0.011 0.173-0.167 0.117-0.178 0.144-0.234 0.083-0.169v0c-1.263 0.503-2.543 0.89-3.842 1.16-1.305 0.269-2.614 0.392-3.927 0.367v0 0 0 0c-2.626-0.048-4.882-0.68-6.766-1.894-1.885-1.215-3.324-2.875-4.319-4.981-0.995-2.105-1.468-4.488-1.419-7.147v0 0 0 0c0.051-2.76 0.629-5.173 1.733-7.239 1.105-2.067 2.645-3.665 4.62-4.796 1.981-1.124 4.301-1.661 6.96-1.612v0 0 0 0c1.08 0.02 2.234 0.154 3.464 0.404 1.229 0.249 2.379 0.614 3.45 1.093zM166.072 24.55l-3.361-2.133-0.403 0.683 3.362 2.132v0 0 0l3.308 2.272 0.403-0.683-3.309-2.271v0 0zM169.574 27.174v0c0.051-2.76 0.099-5.026 0.146-6.798 0.053-1.773 0.112-3.192 0.178-4.257 0.066-1.066 0.149-1.911 0.247-2.536 0.091-0.618 0.191-1.14 0.299-1.565v0c0.036-0.133 0.015-0.25-0.064-0.351-0.085-0.102-0.194-0.154-0.327-0.156v0l-8.759-0.162c-0.133-0.002-0.241 0.056-0.323 0.174-0.089 0.112-0.101 0.248-0.037 0.41v0c0.251 0.498 0.463 1.112 0.636 1.842 0.167 0.723 0.294 1.776 0.382 3.157 0.088 1.382 0.142 3.32 0.163 5.814v0l0.307-0.384c-0.731 0.213-1.44 0.364-2.129 0.451-0.695 0.087-1.369 0.125-2.022 0.113v0c-2.893-0.053-5.141-1.072-6.745-3.055-1.604-1.983-2.375-4.618-2.315-7.904v0c0.061-3.286 0.928-5.864 2.603-7.733 1.675-1.876 3.959-2.788 6.851-2.735v0c1.706 0.031 3.407 0.373 5.102 1.024 1.695 0.658 3.286 1.674 4.775 3.049v0c0.131 0.136 0.27 0.162 0.419 0.077 0.148-0.077 0.224-0.196 0.226-0.355v0l0.153-8.279c0.001-0.067-0.021-0.14-0.066-0.221-0.052-0.088-0.111-0.149-0.177-0.184v0c-1.695-0.651-3.392-1.166-5.092-1.544-1.7-0.378-3.387-0.582-5.06-0.613v0c-3.553-0.065-6.673 0.651-9.361 2.148-2.688 1.491-4.787 3.579-6.296 6.265-1.51 2.679-2.297 5.779-2.362 9.298v0c-0.061 3.313 0.581 6.312 1.925 8.997 1.351 2.685 3.282 4.825 5.792 6.418 2.518 1.587 5.517 2.412 8.996 2.476v0c1.973 0.036 3.907-0.175 5.803-0.633 1.902-0.452 3.861-1.089 5.876-1.912v0c0.168-0.057 0.253-0.169 0.256-0.336zM168.785 27.16v0l0.256-0.345c-1.955 0.791-3.857 1.406-5.705 1.845-1.848 0.439-3.742 0.641-5.682 0.605v0c-3.313-0.061-6.172-0.85-8.578-2.368-2.399-1.524-4.242-3.562-5.528-6.113-1.28-2.557-1.89-5.426-1.832-8.605v0c0.062-3.386 0.814-6.356 2.254-8.91 1.44-2.547 3.441-4.537 6.001-5.971 2.553-1.433 5.54-2.118 8.96-2.055v0c1.64 0.03 3.286 0.234 4.939 0.611 1.647 0.377 3.287 0.891 4.923 1.541v0l-0.243-0.395-0.153 8.279 0.646-0.288c-1.514-1.408-3.168-2.465-4.963-3.172-1.794-0.706-3.594-1.076-5.4-1.11v0c-3.086-0.057-5.551 0.925-7.396 2.945-1.844 2.02-2.799 4.786-2.863 8.298v0c-0.065 3.513 0.787 6.336 2.555 8.469 1.768 2.14 4.194 3.238 7.28 3.294v0c0.72 0.013 1.444-0.023 2.173-0.11 0.722-0.087 1.445-0.237 2.168-0.45v0c0.101-0.031 0.175-0.09 0.224-0.176 0.055-0.079 0.083-0.152 0.084-0.218v0c-0.019-2.594-0.082-4.606-0.189-6.035-0.1-1.429-0.244-2.515-0.43-3.258-0.186-0.744-0.405-1.381-0.655-1.912v0l-0.351 0.583 8.758 0.161-0.38-0.497c-0.108 0.425-0.208 0.956-0.3 1.595-0.092 0.638-0.174 1.5-0.248 2.586-0.067 1.079-0.126 2.515-0.179 4.307-0.046 1.786-0.095 4.076-0.146 6.869zM192.67-0.765v0l0.092-0.791c-1.188-0.082-2.561-0.142-4.122-0.18-1.56-0.032-3.104-0.057-4.63-0.075-1.527-0.019-2.864-0.006-4.01 0.038v0c-0.133 0.001-0.233 0.042-0.299 0.123-0.066 0.087-0.098 0.178-0.097 0.271v0l0.264 27.399c0.001 0.093 0.035 0.183 0.102 0.269 0.067 0.079 0.168 0.118 0.301 0.117v0c1.18 0.022 2.527 0.016 4.04-0.019 1.506-0.028 3.023-0.082 4.549-0.164 1.526-0.081 2.882-0.178 4.067-0.289v0l-0.107-0.779c-1.152 0.104-2.482 0.197-3.988 0.278-1.513 0.081-3.022 0.139-4.528 0.174-1.513 0.028-2.86 0.031-4.04 0.009v0c-0.1 0.001-0.059 0.091 0.122 0.269 0.182 0.178 0.272 0.221 0.271 0.127v0l-0.264-27.398c-0.001-0.093-0.09-0.049-0.268 0.132-0.178 0.182-0.217 0.272-0.118 0.271v0c1.146-0.044 2.483-0.057 4.01-0.038 1.527 0.019 3.064 0.044 4.611 0.075 1.54 0.032 2.888 0.092 4.042 0.181zM180.135 12.217l11.379-0.11-0.008-0.79-11.379 0.11zM180.51 26.304l3.67-3.136-0.505-0.585-3.66 3.135c0 0 0.007-0.007 0.019-0.02 0.02-0.02 0.03-0.03 0.03-0.03v0l-4.85 3.107 0.406 0.676 4.841-3.097c0.033 0 0.05-0.007 0.05-0.02 0-0.02 0-0.03-0.001-0.03zM180.19-1.724l-4.899-3.013-0.393 0.693 4.909 3.013c0 0-0.01-0.01-0.03-0.029-0.013-0.013-0.02-0.02-0.021-0.02v0l3.72 3.064 0.494-0.595-3.729-3.064c0 0 0-0.01-0.001-0.03 0-0.013-0.017-0.02-0.05-0.019zM193.009-0.918l3.027-3.419-0.605-0.494-3.017 3.429c-0.033 0.034-0.056 0.107-0.068 0.22-0.019 0.12-0.011 0.21 0.023 0.27v0l3.101 4.261 0.685-0.497-3.101-4.26c-0.067-0.066-0.106 0.018-0.118 0.251-0.018 0.227 0.006 0.307 0.073 0.239zM193.166 25.792l3.994-4.819-0.595-0.484-3.994 4.808c-0.066 0.067-0.099 0.151-0.097 0.251 0.001 0.1 0.035 0.183 0.102 0.249v0l3.093 3.371 0.585-0.506-3.093-3.37c-0.067-0.059-0.09 0.024-0.067 0.25 0.016 0.233 0.04 0.316 0.072 0.25zM191.803 11.954l3.02-4.069-0.604-0.484-3.011 4.069c-0.066 0.067-0.099 0.151-0.098 0.251 0.001 0.093 0.035 0.173 0.103 0.239v0l3.088 3.96 0.595-0.495-3.098-3.961c-0.034-0.066-0.05 0.017-0.048 0.251 0.002 0.227 0.02 0.306 0.053 0.239zM180.374 12.114l3.471-2.983-0.496-0.585-3.471 2.983c-0.099 0.068-0.148 0.168-0.147 0.302 0.001 0.127 0.052 0.223 0.153 0.288v0l3.528 2.926 0.484-0.594-3.528-2.927c-0.101-0.066-0.15 0.035-0.147 0.302 0.003 0.26 0.053 0.356 0.153 0.288zM175.421 29.503v0l20.539-0.198c0.1-0.001 0.183-0.032 0.249-0.092 0.066-0.067 0.115-0.151 0.148-0.252v0l0.901-8.189c0.032-0.167-0.026-0.296-0.174-0.388-0.148-0.099-0.304-0.08-0.469 0.054v0c-0.556 0.465-1.275 0.849-2.159 1.151-0.884 0.302-2.145 0.527-3.784 0.677-1.639 0.149-3.888 0.221-6.748 0.215v0l0.393 0.386c-0.036-0.986-0.077-2.143-0.123-3.469-0.046-1.333-0.094-2.886-0.145-4.659v0l-0.396 0.404c2.6-0.025 4.58-0.011 5.941 0.043 1.361 0.047 2.388 0.134 3.082 0.26 0.688 0.127 1.263 0.318 1.726 0.573v0c0.167 0.065 0.307 0.057 0.42-0.024 0.112-0.088 0.168-0.195 0.167-0.321v0l-0.078-8.03c-0.002-0.167-0.059-0.283-0.173-0.348-0.114-0.066-0.254-0.064-0.42 0.004v0c-0.457 0.271-1.029 0.483-1.714 0.636-0.692 0.153-1.724 0.26-3.097 0.32-1.379 0.067-3.352 0.129-5.919 0.187v0l0.404 0.386c0.018-1.54 0.039-2.894 0.061-4.06 0.022-1.167 0.042-2.194 0.06-3.081v0l-0.386 0.394c2.793-0.094 4.953-0.074 6.481 0.057 1.528 0.139 2.68 0.318 3.455 0.537 0.776 0.226 1.425 0.483 1.948 0.771v0c0.167 0.065 0.307 0.054 0.419-0.034 0.113-0.081 0.168-0.188 0.167-0.321v0l-0.074-7.68c-0.001-0.1-0.042-0.19-0.122-0.269-0.081-0.079-0.171-0.118-0.271-0.117v0l-20.639 0.199c-0.133 0.001-0.239 0.059-0.319 0.173-0.086 0.114-0.094 0.254-0.026 0.42v0c0.271 0.457 0.49 1.012 0.656 1.664 0.173 0.658 0.305 1.56 0.396 2.706 0.098 1.152 0.179 2.662 0.244 4.528 0.065 1.873 0.111 4.272 0.139 7.199v0c0.03 3.087 0.031 5.623 0.004 7.61-0.028 1.987-0.079 3.588-0.154 4.802-0.068 1.214-0.183 2.159-0.343 2.833-0.153 0.675-0.361 1.26-0.623 1.756v0c-0.065 0.134-0.054 0.267 0.034 0.4 0.081 0.126 0.188 0.188 0.322 0.187zM195.952 28.525l-20.539 0.198 0.346 0.587c0.262-0.496 0.469-1.098 0.623-1.806 0.16-0.708 0.29-1.68 0.392-2.914 0.101-1.234 0.169-2.868 0.202-4.903 0.027-2.034 0.025-4.627-0.005-7.78v0c-0.029-2.993-0.076-5.45-0.141-7.369-0.072-1.919-0.17-3.462-0.294-4.627-0.125-1.166-0.273-2.084-0.447-2.756-0.166-0.672-0.385-1.253-0.657-1.744v0l-0.334 0.593 20.639-0.198-0.394-0.387 0.074 7.68 0.587-0.346c-0.563-0.288-1.249-0.551-2.058-0.79-0.802-0.239-1.994-0.434-3.575-0.585-1.575-0.151-3.792-0.18-6.652-0.086v0c-0.1 0.001-0.19 0.035-0.269 0.102-0.079 0.067-0.118 0.168-0.117 0.301v0c-0.025 0.887-0.048 1.914-0.07 3.081-0.022 1.167-0.042 2.521-0.061 4.061v0c0.001 0.1 0.042 0.19 0.123 0.269 0.087 0.086 0.178 0.128 0.271 0.127v0c2.04-0.02 3.69-0.062 4.949-0.127 1.266-0.059 2.285-0.142 3.058-0.25 0.772-0.107 1.388-0.23 1.846-0.368 0.459-0.131 0.884-0.299 1.275-0.502v0l-0.593-0.334 0.078 8.029 0.586-0.355c-0.395-0.19-0.823-0.349-1.284-0.478-0.461-0.129-1.079-0.23-1.853-0.302-0.774-0.073-1.801-0.129-3.082-0.171-1.28-0.034-2.924-0.042-4.931-0.022v0c-0.093 0.001-0.183 0.042-0.269 0.123-0.079 0.087-0.118 0.178-0.117 0.271v0c0.05 1.773 0.099 3.326 0.145 4.659 0.046 1.326 0.091 2.483 0.133 3.468v0c0.001 0.133 0.042 0.233 0.123 0.299 0.081 0.066 0.171 0.098 0.271 0.098v0c2.987 0.005 5.326-0.078 7.018-0.248 1.692-0.163 2.996-0.412 3.913-0.748 0.917-0.336 1.666-0.753 2.248-1.251v0l-0.643-0.344-0.901 8.189zM218.308 25.381l4.696 2.803 0.354-0.7-4.687-2.814c-0.035-0.032-0.103-0.045-0.203-0.039-0.1 0.005-0.179 0.026-0.237 0.063v0l-4.32 3.295 0.526 0.653 4.321-3.285c0.063-0.07-0.012-0.1-0.225-0.088-0.213 0.011-0.288 0.049-0.225 0.112zM246.109 23.896l4.786 2.799 0.353-0.7-4.787-2.809c-0.035-0.032-0.093-0.045-0.172-0.041-0.08 0.004-0.152 0.025-0.217 0.062v0l-4.46 3.303 0.425 0.658 4.461-3.293c0.063-0.07-0.002-0.1-0.195-0.09-0.2 0.011-0.265 0.048-0.194 0.111zM216.7-2.113l3.545 5.439 0.667-0.436-3.544-5.429c-0.035-0.032-0.063-0.057-0.084-0.076-0.014-0.013-0.022-0.036-0.024-0.068v0l-4.647-2.817-0.452 0.716 4.647 2.816c0.027-0.001 0.008-0.034-0.056-0.097-0.07-0.063-0.088-0.079-0.052-0.048zM245.037-3.476l4.46-3.302-0.426-0.669-4.46 3.303c-0.032 0.035-0.054 0.06-0.066 0.074-0.019 0.021-0.044 0.049-0.076 0.084v0l-3.059 5.541 0.71 0.352 3.059-5.541c-0.002-0.033-0.034-0.015-0.097 0.056-0.063 0.07-0.078 0.104-0.045 0.102zM216.639-2.31l1.461 27.361 0.789-0.042-1.461-27.361c-0.005-0.093-0.096-0.045-0.273 0.145-0.17 0.189-0.205 0.281-0.105 0.276v0l4.773-0.255c0.067-0.004 0.006-0.067-0.18-0.191-0.187-0.124-0.261-0.136-0.223-0.038v0l10.543 26.576c0.075 0.156 0.209 0.229 0.402 0.219 0.2-0.011 0.329-0.098 0.386-0.261v0l7.902-27.561c0.028-0.102-0.044-0.081-0.217 0.062-0.173 0.143-0.229 0.213-0.169 0.209v0l4.583-0.245c0.093-0.005 0.045-0.093-0.144-0.262-0.189-0.17-0.282-0.209-0.277-0.116v0l1.462 27.361 0.789-0.042-1.462-27.361c-0.005-0.093-0.05-0.181-0.134-0.263-0.091-0.075-0.183-0.11-0.276-0.106v0l-4.583 0.245c-0.06 0.003-0.122 0.03-0.186 0.08-0.064 0.057-0.127 0.12-0.191 0.191v0l-7.901 27.55c-0.023 0.201 0.123 0.294 0.435 0.277 0.313-0.017 0.431-0.123 0.353-0.319v0l-10.551-26.565c-0.037-0.065-0.097-0.122-0.18-0.171-0.082-0.042-0.157-0.062-0.223-0.058v0l-4.773 0.255c-0.1 0.005-0.188 0.05-0.264 0.134-0.075 0.091-0.11 0.183-0.105 0.276zM222.067-2.299l3.372-3.245-0.521-0.563-3.381 3.245c-0.032 0.035-0.054 0.06-0.067 0.074-0.012 0.021-0.033 0.065-0.063 0.133v0l-1.228 5.684 0.799 0.158 1.218-5.693c-0.002-0.033-0.03 0.002-0.084 0.104-0.061 0.103-0.076 0.138-0.045 0.103zM239.861-3.45l1.515 5.297 0.779-0.232-1.515-5.297c-0.035-0.032-0.053-0.064-0.055-0.097-0.002-0.033-0.02-0.066-0.055-0.097v0l-3.309-2.888-0.558 0.621 3.309 2.888c0.068 0.03 0.066-0.01-0.007-0.12-0.073-0.116-0.108-0.141-0.104-0.075zM232.015 24.208l1.996 3.248 0.668-0.436-1.996-3.248c-0.073-0.123-0.183-0.18-0.33-0.173-0.146 0.008-0.266 0.078-0.359 0.21v0l-1.988 3.461 0.71 0.362 1.988-3.461c0.059-0.137-0.061-0.204-0.361-0.201-0.294-0.004-0.403 0.075-0.328 0.238zM232.743 23.969l-0.238-8.97-0.779 0.041 0.229 8.971zM214.2 28.705v0l8.997-0.481c0.166-0.009 0.28-0.078 0.339-0.208 0.059-0.137 0.052-0.27-0.021-0.4v0c-0.259-0.48-0.497-1.052-0.713-1.714-0.216-0.663-0.396-1.598-0.54-2.805-0.145-1.207-0.296-2.802-0.456-4.783-0.153-1.981-0.311-4.513-0.475-7.595v0c-0.067-1.252-0.139-2.596-0.216-4.035-0.077-1.445-0.125-2.644-0.142-3.597v0l-0.781 0.192c0.485 1.089 1.002 2.327 1.55 3.712 0.555 1.386 1.188 2.931 1.9 4.636v0c1.208 2.866 2.192 5.231 2.953 7.092 0.754 1.869 1.351 3.366 1.792 4.491 0.434 1.132 0.769 2.019 1.003 2.66 0.235 0.648 0.429 1.216 0.582 1.702v0c0.039 0.098 0.092 0.169 0.161 0.211 0.069 0.043 0.154 0.062 0.254 0.057v0l3.984-0.213c0.093-0.005 0.172-0.033 0.236-0.082 0.064-0.05 0.11-0.126 0.138-0.228v0c0.107-0.5 0.239-1.084 0.397-1.754 0.165-0.663 0.413-1.581 0.744-2.753 0.332-1.166 0.783-2.719 1.354-4.659 0.571-1.933 1.321-4.39 2.25-7.371v0c0.554-1.872 1.056-3.545 1.504-5.017 0.449-1.466 0.84-2.769 1.173-3.908v0l-0.796-0.108c0.093 1.117 0.179 2.421 0.259 3.912 0.08 1.491 0.15 2.813 0.211 3.964v0c0.165 3.082 0.277 5.617 0.336 7.603 0.053 1.987 0.071 3.588 0.057 4.804-0.015 1.216-0.088 2.164-0.219 2.846-0.131 0.681-0.312 1.275-0.546 1.781v0c-0.059 0.137-0.042 0.269 0.051 0.398 0.087 0.122 0.197 0.18 0.33 0.173v0l9.247-0.494c0.16-0.009 0.27-0.078 0.329-0.208 0.059-0.137 0.052-0.27-0.021-0.399v0c-0.253-0.481-0.487-1.052-0.702-1.715-0.216-0.663-0.399-1.598-0.551-2.805-0.145-1.207-0.293-2.802-0.445-4.783-0.159-1.981-0.321-4.513-0.486-7.595v0c-0.156-2.922-0.257-5.321-0.304-7.194-0.053-1.867-0.07-3.378-0.052-4.534 0.025-1.15 0.11-2.059 0.255-2.727 0.145-0.662 0.318-1.229 0.52-1.7v0c0.058-0.17 0.05-0.31-0.023-0.42-0.073-0.11-0.189-0.16-0.348-0.151v0l-12.353 0.659c-0.1 0.005-0.188 0.05-0.263 0.135-0.076 0.084-0.111 0.176-0.105 0.276v0c0.032 0.592 0.023 1.251-0.025 1.974-0.041 0.723-0.171 1.675-0.388 2.855-0.217 1.18-0.584 2.762-1.099 4.745-0.522 1.984-1.239 4.549-2.152 7.696v0l-1.166 4.058 0.779-0.042-1.581-3.911c-1.252-3.064-2.233-5.556-2.942-7.474-0.71-1.918-1.229-3.453-1.558-4.603-0.322-1.151-0.535-2.074-0.639-2.77-0.104-0.702-0.172-1.349-0.204-1.942v0c-0.005-0.1-0.05-0.188-0.134-0.263-0.084-0.076-0.176-0.111-0.276-0.106v0l-12.792 0.683c-0.133 0.007-0.237 0.069-0.31 0.187-0.081 0.118-0.083 0.258-0.008 0.421v0c0.291 0.445 0.534 0.99 0.729 1.634 0.202 0.65 0.373 1.546 0.514 2.686 0.148 1.147 0.295 2.651 0.441 4.513 0.147 1.868 0.298 4.264 0.454 7.186v0c0.165 3.082 0.277 5.617 0.336 7.603 0.059 1.986 0.078 3.588 0.056 4.804-0.015 1.216-0.088 2.164-0.219 2.845-0.124 0.681-0.306 1.275-0.545 1.782v0c-0.059 0.137-0.042 0.269 0.051 0.398 0.087 0.122 0.197 0.18 0.33 0.173zM223.155 27.445l-8.997 0.481 0.371 0.571c0.24-0.507 0.421-1.117 0.543-1.832 0.129-0.715 0.217-1.691 0.264-2.928 0.047-1.238 0.044-2.873-0.011-4.907-0.062-2.033-0.177-4.624-0.345-7.772v0c-0.16-2.989-0.314-5.441-0.463-7.356-0.156-1.914-0.321-3.451-0.497-4.61-0.175-1.159-0.364-2.07-0.567-2.734-0.196-0.664-0.44-1.235-0.732-1.713v0l-0.308 0.607 12.792-0.683-0.42-0.368c0.032 0.592 0.1 1.246 0.204 1.962 0.105 0.715 0.319 1.659 0.642 2.83 0.329 1.164 0.85 2.732 1.563 4.703 0.712 1.965 1.695 4.493 2.949 7.583v0l1.591 3.911c0.075 0.163 0.21 0.239 0.403 0.229 0.2-0.011 0.325-0.101 0.376-0.27v0l1.165-4.058c0.917-3.207 1.635-5.819 2.155-7.836 0.513-2.017 0.878-3.632 1.093-4.846 0.216-1.213 0.344-2.181 0.386-2.904 0.048-0.724 0.056-1.382 0.025-1.974v0l-0.379 0.41 12.352-0.659-0.381-0.571c-0.2 0.505-0.372 1.098-0.515 1.78-0.144 0.682-0.245 1.609-0.303 2.78-0.051 1.171-0.049 2.716 0.008 4.636 0.049 1.92 0.154 4.375 0.313 7.364v0c0.168 3.149 0.333 5.737 0.495 7.765 0.155 2.028 0.322 3.655 0.501 4.88 0.186 1.225 0.387 2.186 0.604 2.882 0.217 0.696 0.452 1.284 0.705 1.765v0l0.318-0.608-9.246 0.494 0.371 0.571c0.233-0.506 0.414-1.117 0.543-1.832 0.129-0.715 0.217-1.691 0.264-2.928 0.047-1.238 0.044-2.873-0.012-4.906-0.062-2.033-0.177-4.624-0.345-7.773v0c-0.062-1.152-0.132-2.473-0.212-3.964-0.08-1.491-0.166-2.795-0.259-3.912v0c-0.012-0.226-0.132-0.35-0.36-0.371-0.235-0.021-0.38 0.07-0.436 0.273v0c-0.247 0.868-0.496 1.709-0.746 2.524-0.257 0.822-0.532 1.734-0.826 2.738-0.287 1.003-0.656 2.225-1.106 3.664v0c-0.928 3.007-1.677 5.481-2.247 7.42-0.571 1.933-1.022 3.493-1.353 4.679-0.331 1.186-0.575 2.114-0.732 2.783-0.165 0.663-0.301 1.244-0.408 1.744v0l0.384-0.311-3.984 0.213 0.405 0.269c-0.159-0.486-0.353-1.049-0.581-1.691-0.235-0.648-0.57-1.545-1.005-2.691-0.442-1.145-1.043-2.648-1.803-4.51-0.754-1.869-1.736-4.25-2.945-7.143v0c-0.715-1.771-1.357-3.342-1.924-4.714-0.567-1.365-1.076-2.58-1.527-3.644v0c-0.11-0.188-0.271-0.259-0.482-0.215-0.211 0.045-0.311 0.18-0.299 0.407v0c0.018 0.954 0.065 2.153 0.142 3.598 0.077 1.438 0.149 2.783 0.216 4.034v0c0.168 3.149 0.33 5.737 0.484 7.765 0.162 2.028 0.332 3.654 0.511 4.88 0.179 1.226 0.377 2.186 0.595 2.882 0.217 0.696 0.456 1.284 0.715 1.764v0zM261.039 15l-1.783 6.994 0.814 0.226 1.783-6.994v0 0 0l5.181-19.872c0.027-0.069-0.044-0.039-0.213 0.09-0.169 0.129-0.22 0.191-0.154 0.185v0l2.749-0.254c0.06-0.006-0.005-0.056-0.195-0.153-0.19-0.096-0.265-0.113-0.226-0.05v0l8.8 18.578c0.033-0.003 0.04-0.004 0.02-0.001-0.013 0.001-0.02 0.002-0.02 0.001v0l2.927 6.559 0.759-0.372-2.937-6.557v0 0 0l-8.79-18.579c-0.114-0.15-0.251-0.218-0.41-0.203v0l-2.748 0.254c-0.166 0.015-0.291 0.107-0.377 0.276v0l-5.18 19.872v0 0zM261.478 15.512l16.729-1.549-0.073-0.786-16.729 1.548zM266.952-4.99l-2.614-3.715-0.65 0.462 2.613 3.715c0.003 0.033-0.005 0.017-0.024-0.048-0.026-0.065-0.038-0.08-0.035-0.047v0l1.716 5.626c0.078 0.194 0.217 0.281 0.416 0.263 0.193-0.018 0.313-0.129 0.361-0.335v0l1.042-5.881c-0.003-0.033-0.018-0.015-0.045 0.054-0.027 0.069-0.026 0.086 0.005 0.05v0l2.186-4.159-0.724-0.335-2.186 4.159c0 0 0.001 0.01 0.003 0.03 0.001 0.013-0.013 0.038-0.044 0.074v0l-1.031 5.891c-0.015 0.196 0.131 0.289 0.438 0.28 0.313-0.016 0.426-0.133 0.338-0.352v0l-1.706-5.637c0 0-0.007-0.006-0.022-0.018-0.022-0.018-0.034-0.044-0.037-0.077zM261.722 15.439l4.075-3.5-0.551-0.642-4.085 3.501c-0.054 0.072-0.085 0.165-0.095 0.28-0.003 0.114 0.034 0.218 0.109 0.311v0l2.632 2.82 0.542-0.543-2.631-2.819c-0.039-0.063-0.074 0.03-0.105 0.281-0.024 0.25 0.013 0.354 0.109 0.311zM278.337 13.208l-5.096-2.651-0.324 0.723 5.086 2.652c0.103 0.024 0.118-0.095 0.047-0.356-0.077-0.254-0.141-0.328-0.191-0.223v0l-2.517 3.296 0.632 0.433 2.517-3.296c0.054-0.072 0.074-0.174 0.062-0.307-0.012-0.126-0.084-0.217-0.216-0.271zM259.447 22.429l4.59 3.039 0.432-0.642-4.589-3.03c-0.073-0.06-0.15-0.097-0.231-0.109-0.081-0.006-0.151 0.027-0.211 0.1v0l-5.468 3.971 0.451 0.641 5.469-3.961c0.06-0.073-0.017-0.109-0.231-0.109-0.214 0.006-0.284 0.04-0.212 0.1zM280.94 20.489l6.45 2.858 0.326-0.713-6.452-2.868c-0.073-0.06-0.148-0.08-0.226-0.059-0.078 0.027-0.147 0.077-0.207 0.15v0l-4.293 3.852 0.543 0.552 4.292-3.862c0.063-0.039-0.011-0.049-0.224-0.03-0.212 0.02-0.282 0.06-0.209 0.12zM264.481 18.006l-0.362 0.324 11.571-1.071-0.415-0.252c0.516 1.305 0.878 2.366 1.088 3.183 0.204 0.825 0.308 1.518 0.313 2.08 0.005 0.555-0.07 1.088-0.224 1.597v0c-0.021 0.136 0.007 0.257 0.084 0.364 0.077 0.107 0.182 0.154 0.314 0.142v0l10.734-0.994c0.166-0.015 0.275-0.099 0.329-0.251 0.053-0.152 0.023-0.29-0.089-0.414v0c-0.404-0.458-0.827-1.011-1.268-1.66-0.435-0.649-0.963-1.548-1.586-2.695-0.615-1.148-1.407-2.685-2.375-4.611-0.974-1.918-2.193-4.377-3.655-7.375v0c-1.352-2.814-2.457-5.135-3.316-6.964-0.866-1.835-1.537-3.299-2.013-4.393-0.483-1.093-0.845-1.967-1.087-2.621-0.241-0.654-0.433-1.205-0.575-1.654v0c-0.042-0.097-0.1-0.175-0.172-0.235-0.065-0.054-0.148-0.077-0.247-0.067v0l-7.558 0.699c-0.1 0.009-0.186 0.047-0.261 0.115-0.074 0.074-0.104 0.177-0.091 0.31v0c0.012 0.494-0.039 1.102-0.153 1.821-0.114 0.72-0.333 1.681-0.657 2.883-0.318 1.194-0.732 2.756-1.244 4.685-0.511 1.929-1.162 4.332-1.953 7.211v0c-0.887 3.215-1.634 5.856-2.24 7.92-0.598 2.071-1.094 3.727-1.488 4.968-0.401 1.242-0.755 2.222-1.064 2.941-0.315 0.719-0.629 1.34-0.942 1.864v0c-0.087 0.142-0.091 0.283-0.011 0.423 0.08 0.14 0.2 0.202 0.359 0.188v0l10.057-0.931c0.166-0.015 0.277-0.083 0.333-0.202 0.056-0.119 0.045-0.242-0.034-0.368v0c-0.211-0.476-0.376-0.986-0.494-1.531-0.118-0.551-0.139-1.252-0.064-2.103 0.069-0.843 0.221-1.952 0.456-3.326zM268.74 0.981l-0.777 0.072 4.737 10.056 0.338-0.584-7.548 0.699 0.439 0.512zM275.617 16.473l-11.571 1.071c-0.1 0.009-0.18 0.043-0.241 0.103-0.062 0.053-0.105 0.13-0.129 0.232v0c-0.258 1.477-0.412 2.669-0.463 3.578-0.043 0.914 0.003 1.66 0.137 2.237 0.134 0.583 0.325 1.128 0.573 1.634v0l0.289-0.569-10.057 0.931 0.358 0.61c0.346-0.527 0.676-1.161 0.989-1.899 0.307-0.738 0.666-1.735 1.079-2.993 0.412-1.263 0.917-2.937 1.513-5.02 0.597-2.084 1.341-4.751 2.232-8v0c0.812-2.941 1.483-5.393 2.011-7.357 0.528-1.964 0.95-3.553 1.266-4.767 0.316-1.214 0.53-2.192 0.642-2.932 0.12-0.734 0.17-1.348 0.151-1.841v0l-0.352 0.424 7.558-0.7-0.43-0.301c0.145 0.482 0.338 1.05 0.579 1.703 0.241 0.654 0.605 1.544 1.091 2.671 0.486 1.127 1.168 2.603 2.047 4.43 0.873 1.834 2.003 4.17 3.391 7.008v0c1.466 3.031 2.687 5.516 3.662 7.454 0.97 1.939 1.773 3.491 2.41 4.658 0.63 1.16 1.166 2.075 1.61 2.743 0.444 0.669 0.884 1.23 1.321 1.685v0l0.229-0.664-10.734 0.994 0.389 0.506c0.177-0.545 0.272-1.116 0.283-1.713 0.012-0.59-0.09-1.331-0.306-2.221-0.209-0.884-0.576-2.029-1.101-3.433v0c-0.042-0.097-0.099-0.165-0.17-0.206-0.071-0.047-0.157-0.066-0.256-0.056zM273.459 10.737l-4.746-10.045c-0.082-0.16-0.219-0.231-0.412-0.213-0.199 0.018-0.321 0.113-0.365 0.285v0l-2.821 10.746c-0.021 0.136 0.017 0.256 0.113 0.361 0.09 0.105 0.202 0.152 0.335 0.139v0l7.547-0.698c0.166-0.015 0.277-0.083 0.333-0.202 0.056-0.119 0.061-0.243 0.016-0.373zM293.137 7.091l1.47 11.98 0.784-0.096-1.47-11.98v0 0 0l-1.866-15.216c-0.011-0.093-0.095-0.039-0.253 0.162-0.157 0.201-0.185 0.295-0.086 0.282v0l7.871-0.965v0 0 0c2.409-0.295 4.388 0.123 5.937 1.256 1.543 1.134 2.45 2.809 2.723 5.026v0 0 0 0c0.24 1.959-0.122 3.659-1.088 5.1-0.965 1.442-2.347 2.387-4.145 2.836v0c0 0 0.01-0.001 0.03-0.003 0.013-0.002 0.02-0.002 0.02-0.003v0l-9.579 1.175 0.097 0.784 9.578-1.175c0 0 0.01-0.001 0.03-0.003 0.013-0.002 0.02-0.002 0.019-0.003v0c1.993-0.506 3.526-1.564 4.598-3.173 1.079-1.603 1.487-3.48 1.224-5.631v0 0 0 0c-0.296-2.415-1.292-4.261-2.987-5.538-1.696-1.283-3.88-1.761-6.553-1.432v0 0 0 0l-7.871 0.965c-0.099 0.012-0.187 0.063-0.263 0.153-0.069 0.096-0.098 0.19-0.087 0.283v0l1.867 15.216v0 0zM312.776 16.641l-9.341-11.015-0.637 0.471 9.341 11.015zM293.808 7.301l3.114-3.354-0.559-0.536-3.114 3.364c-0.091 0.078-0.129 0.184-0.112 0.316 0.015 0.126 0.077 0.216 0.184 0.27v0l3.884 2.505 0.415-0.645-3.884-2.506c-0.107-0.054-0.145 0.051-0.113 0.316 0.032 0.258 0.093 0.348 0.185 0.27zM294.847 19.384l5.165 2.44 0.304-0.723-5.166-2.449c-0.037-0.029-0.095-0.039-0.175-0.029-0.079 0.01-0.15 0.035-0.212 0.076v0l-4.471 3.632 0.479 0.626 4.463-3.62c0.058-0.074-0.009-0.1-0.201-0.076-0.199 0.024-0.261 0.066-0.186 0.123zM291.815-8.534l-5.207-2.444-0.313 0.733 5.217 2.443c0 0-0.011-0.009-0.034-0.026-0.015-0.012-0.022-0.017-0.022-0.017v0l4.04 2.627 0.424-0.646-4.05-2.627c0 0-0.001-0.01-0.003-0.029-0.002-0.013-0.019-0.018-0.052-0.014zM302.75 5.71l-1.457 3.151 0.734 0.313 1.456-3.161c0.051-0.073-0.03-0.053-0.245 0.061-0.215 0.107-0.275 0.171-0.177 0.193v0l5.123 0.862 0.102-0.808-5.123-0.863c-0.07-0.025-0.142-0.006-0.215 0.057-0.074 0.056-0.14 0.121-0.198 0.195zM312.355 17.236l7.707 2.128 0.205-0.71-7.708-2.138c-0.074-0.058-0.143-0.073-0.207-0.045-0.058 0.021-0.116 0.068-0.174 0.142v0l-3.102 3.454 0.559 0.536 3.101-3.464c0.058-0.074-0.01-0.083-0.204-0.025-0.188 0.057-0.247 0.097-0.177 0.122zM290.579 23.031v0l9.628-1.181c0.165-0.02 0.274-0.097 0.324-0.231 0.05-0.14 0.034-0.273-0.049-0.397v0c-0.332-0.517-0.638-1.174-0.917-1.973-0.279-0.792-0.551-1.947-0.818-3.466-0.268-1.525-0.582-3.623-0.943-6.292v0l-0.348 0.445 4.258-0.522-0.372-0.156c1.492 1.866 2.718 3.428 3.678 4.687 0.966 1.252 1.724 2.284 2.274 3.096 0.542 0.807 0.936 1.47 1.181 1.991 0.244 0.514 0.409 0.981 0.494 1.401v0c0.012 0.099 0.062 0.177 0.15 0.233 0.093 0.049 0.19 0.067 0.289 0.055v0l10.799-1.324c0.165-0.02 0.278-0.115 0.338-0.284 0.066-0.176 0.008-0.32-0.174-0.432v0c-0.546-0.397-1.132-0.852-1.759-1.366-0.621-0.522-1.357-1.21-2.209-2.066-0.851-0.856-1.91-1.992-3.178-3.409-1.262-1.417-2.821-3.2-4.676-5.35v0l-0.084 0.554c1.522-1.114 2.662-2.553 3.42-4.318 0.757-1.765 1.006-3.707 0.746-5.824v0c-0.268-2.184-0.988-4.03-2.16-5.539-1.18-1.514-2.74-2.623-4.68-3.325-1.94-0.702-4.18-0.898-6.721-0.585v0l-12.665 1.553c-0.132 0.016-0.231 0.085-0.297 0.208-0.072 0.123-0.065 0.263 0.021 0.42v0c0.321 0.424 0.6 0.951 0.839 1.58 0.246 0.635 0.478 1.516 0.697 2.645 0.226 1.134 0.476 2.625 0.75 4.472 0.274 1.854 0.59 4.233 0.946 7.138v0c0.376 3.064 0.662 5.584 0.858 7.562 0.196 1.978 0.324 3.574 0.386 4.788 0.068 1.214 0.061 2.165-0.023 2.854-0.077 0.688-0.218 1.293-0.422 1.815v0c-0.05 0.14-0.024 0.272 0.078 0.394 0.095 0.116 0.208 0.166 0.341 0.149zM295.756-5.149l4.258-0.522c1.337-0.164 2.402 0.085 3.195 0.746 0.787 0.669 1.261 1.655 1.421 2.959v0c0.156 1.27-0.053 2.33-0.628 3.18-0.574 0.85-1.397 1.34-2.469 1.472v0l-4.943 0.606 0.445 0.339c-0.256-2.084-0.458-3.873-0.608-5.366-0.149-1.486-0.257-2.753-0.325-3.799v0zM300.112 21.076l-9.628 1.181 0.409 0.544c0.205-0.522 0.343-1.144 0.416-1.864 0.079-0.722 0.1-1.702 0.063-2.94-0.038-1.238-0.154-2.869-0.349-4.894-0.201-2.024-0.494-4.601-0.877-7.73v0c-0.364-2.971-0.687-5.407-0.967-7.307-0.287-1.899-0.557-3.421-0.812-4.565-0.255-1.144-0.506-2.04-0.753-2.689-0.241-0.649-0.524-1.202-0.848-1.659v0l-0.266 0.627 12.665-1.553c2.376-0.291 4.466-0.118 6.27 0.52 1.799 0.646 3.254 1.67 4.366 3.071 1.119 1.401 1.804 3.127 2.056 5.178v0c0.244 1.992 0.019 3.799-0.675 5.423-0.694 1.623-1.757 2.953-3.188 3.988v0c-0.095 0.045-0.142 0.132-0.139 0.259-0.004 0.135 0.015 0.233 0.056 0.295v0c1.894 2.186 3.482 3.992 4.766 5.42 1.284 1.434 2.37 2.591 3.256 3.469 0.881 0.886 1.636 1.589 2.264 2.111 0.628 0.521 1.215 0.979 1.761 1.375v0l0.154-0.714-10.799 1.325 0.428 0.29c-0.085-0.419-0.251-0.896-0.498-1.43-0.246-0.527-0.645-1.204-1.196-2.029-0.545-0.833-1.303-1.892-2.273-3.177-0.97-1.285-2.236-2.893-3.796-4.824v0c-0.108-0.114-0.228-0.163-0.36-0.147v0l-4.259 0.522c-0.099 0.012-0.184 0.063-0.253 0.152-0.07 0.089-0.098 0.183-0.086 0.283v0c0.373 2.768 0.706 4.937 1 6.507 0.287 1.57 0.58 2.757 0.88 3.559 0.294 0.81 0.61 1.494 0.946 2.05v0zM299.918-6.455v0l-4.258 0.522c-0.099 0.012-0.185 0.056-0.256 0.132-0.071 0.076-0.101 0.164-0.088 0.263v0c0.069 1.113 0.178 2.413 0.327 3.899 0.15 1.493 0.352 3.282 0.608 5.366v0c0.012 0.099 0.063 0.184 0.152 0.253 0.096 0.069 0.19 0.098 0.282 0.087v0l4.943-0.607c1.27-0.156 2.267-0.742 2.988-1.757 0.715-1.015 0.981-2.27 0.798-3.765v0c-0.184-1.502-0.763-2.657-1.735-3.464-0.979-0.807-2.233-1.116-3.761-0.929zM327.025-12.353l9.158-1.369-0.117-0.781-9.158 1.369v0 0 0l-9.109 1.361 0.117 0.781 9.109-1.361v0 0zM331.386 14.194l-4.035-27-0.781 0.117 4.035 27zM330.853 14.618l5.277 2.295 0.286-0.73-5.269-2.307c-0.038-0.028-0.1-0.036-0.186-0.023-0.079 0.012-0.149 0.039-0.21 0.082v0l-4.325 3.74 0.497 0.614 4.326-3.731c0.049-0.075-0.021-0.098-0.213-0.069-0.198 0.03-0.259 0.072-0.183 0.129zM336.465-13.865l2.549-3.576-0.67-0.496-2.55 3.576c-0.023 0.071-0.038 0.154-0.044 0.249 0.002 0.101 0.024 0.182 0.067 0.243v0l3.686 4.029 0.625-0.487-3.686-4.03c-0.048-0.094-0.071-0.026-0.071 0.203 0.002 0.236 0.033 0.332 0.094 0.289zM317.482-11.523l-2.346 4.931 0.74 0.283 2.347-4.931c0.056-0.076 0.067-0.162 0.032-0.257-0.027-0.09-0.078-0.164-0.154-0.22v0l-3.484-2.674-0.496 0.67 3.483 2.675c0.071 0.023 0.079-0.079 0.025-0.307-0.047-0.222-0.096-0.279-0.147-0.17zM326.675-12.998l-3.141 3.604 0.571 0.511 3.152-3.606c0.049-0.075-0.038-0.095-0.262-0.062-0.231 0.034-0.308 0.08-0.232 0.136v0l4.117 2.519 0.398-0.656-4.108-2.52c-0.076-0.056-0.163-0.077-0.262-0.062-0.099 0.015-0.176 0.06-0.233 0.136zM326.732 18.368v0l9.604-1.435c0.158-0.024 0.261-0.103 0.308-0.239 0.046-0.142 0.027-0.274-0.059-0.395v0c-0.297-0.454-0.584-1.001-0.862-1.641-0.284-0.638-0.555-1.552-0.814-2.74-0.258-1.188-0.561-2.761-0.908-4.717-0.34-1.958-0.738-4.463-1.194-7.516v0c-0.34-2.275-0.614-4.219-0.821-5.833-0.207-1.614-0.379-2.99-0.516-4.129v0l-0.338 0.445c1.699-0.22 3.086-0.343 4.161-0.369 1.074-0.032 1.947-0.008 2.62 0.073 0.68 0.087 1.267 0.225 1.761 0.415v0c0.168 0.042 0.305 0.012 0.411-0.092 0.1-0.096 0.141-0.21 0.12-0.342v0l-1.135-7.595c-0.015-0.099-0.068-0.182-0.158-0.25-0.098-0.066-0.192-0.093-0.285-0.079v0l-24.32 3.635c-0.099 0.015-0.182 0.068-0.249 0.159-0.067 0.091-0.094 0.186-0.079 0.284v0l1.135 7.596c0.02 0.132 0.098 0.228 0.235 0.288 0.145 0.066 0.278 0.056 0.4-0.029v0c0.417-0.325 0.927-0.627 1.533-0.907 0.606-0.273 1.438-0.552 2.494-0.837 1.048-0.291 2.414-0.58 4.097-0.865v0l-0.443-0.328c0.235 1.124 0.48 2.49 0.733 4.096 0.26 1.606 0.56 3.546 0.9 5.821v0c0.456 3.053 0.805 5.566 1.046 7.538 0.247 1.972 0.421 3.564 0.522 4.776 0.094 1.213 0.111 2.164 0.052 2.853-0.065 0.691-0.19 1.299-0.374 1.826v0c-0.046 0.142-0.02 0.273 0.079 0.392 0.098 0.113 0.213 0.16 0.344 0.141zM336.22 16.161l-9.603 1.435 0.433 0.532c0.184-0.526 0.307-1.151 0.367-1.875 0.054-0.723 0.046-1.702-0.024-2.938-0.064-1.238-0.223-2.865-0.477-4.883-0.248-2.019-0.605-4.588-1.071-7.707v0c-0.34-2.275-0.64-4.215-0.901-5.821-0.254-1.607-0.498-2.972-0.733-4.096v0c-0.02-0.132-0.077-0.224-0.173-0.278-0.089-0.054-0.183-0.074-0.282-0.059v0c-1.749 0.295-3.163 0.597-4.242 0.907-1.086 0.311-1.954 0.616-2.604 0.915-0.656 0.3-1.209 0.615-1.658 0.946v0l0.643 0.247-1.135-7.595-0.338 0.444 24.32-3.634-0.453-0.327 1.135 7.596 0.533-0.424c-0.526-0.184-1.144-0.324-1.852-0.42-0.715-0.095-1.634-0.133-2.757-0.114-1.129 0.02-2.573 0.145-4.332 0.374v0c-0.092 0.014-0.176 0.06-0.253 0.139-0.069 0.078-0.094 0.183-0.074 0.315v0c0.137 1.139 0.309 2.515 0.516 4.129 0.207 1.614 0.481 3.558 0.821 5.832v0c0.466 3.119 0.876 5.68 1.229 7.683 0.347 2.004 0.667 3.608 0.962 4.811 0.294 1.203 0.586 2.14 0.875 2.811 0.282 0.672 0.572 1.236 0.869 1.69v0z" opacity="1" transform="matrix(1,0,0,1,0,0)" fill="#000000" class="wordmark-text-0" data-fill-palette-color="primary" id="text-0"></path></svg></g></svg></g><g transform="matrix(1,0,0,1,138.70510559332035,73.07681390138248)"><svg viewBox="0 0 118.10978881335929 26.08246644024832" height="26.08246644024832" width="118.10978881335929"><g transform="matrix(1,0,0,1,0,0)"><svg width="118.10978881335929" viewBox="1.7 -37.7 219.83 48.550000000000004" height="26.08246644024832" data-palette-color="#000000"><path d="M12.35-27.15Q14.5-27.15 16.25-26.43 18-25.7 19.6-24.15L19.6-24.15 16.95-20.65Q15.85-21.55 14.88-21.98 13.9-22.4 12.75-22.4L12.75-22.4Q10.5-22.4 9.35-20.28 8.2-18.15 8.2-13.1L8.2-13.1Q8.2-8.2 9.38-6.2 10.55-4.2 12.75-4.2L12.75-4.2Q13.85-4.2 14.75-4.6 15.65-5 16.85-5.85L16.85-5.85 19.6-2.3Q16.4 0.75 12.45 0.75L12.45 0.75Q7.35 0.75 4.53-2.73 1.7-6.2 1.7-13L1.7-13Q1.7-17.4 3-20.6 4.3-23.8 6.73-25.48 9.15-27.15 12.35-27.15L12.35-27.15ZM32.05-27.15Q37.05-27.15 39.82-23.65 42.6-20.15 42.6-13.25L42.6-13.25Q42.6-6.65 39.8-2.95 37 0.75 32.05 0.75L32.05 0.75Q27.1 0.75 24.3-2.88 21.5-6.5 21.5-13.25L21.5-13.25Q21.5-19.95 24.3-23.55 27.1-27.15 32.05-27.15L32.05-27.15ZM32.05-22.5Q29.9-22.5 28.9-20.38 27.9-18.25 27.9-13.25L27.9-13.25Q27.9-8.2 28.9-6.08 29.9-3.95 32.05-3.95L32.05-3.95Q34.2-3.95 35.2-6.08 36.2-8.2 36.2-13.25L36.2-13.25Q36.2-18.3 35.2-20.4 34.2-22.5 32.05-22.5L32.05-22.5ZM52.75 0.75Q50.05 0.75 48.47-0.93 46.9-2.6 46.9-5.4L46.9-5.4 46.9-37.05 53.05-37.7 53.05-5.65Q53.05-5 53.34-4.6 53.65-4.2 54.25-4.2L54.25-4.2Q54.59-4.2 54.92-4.3 55.25-4.4 55.34-4.4L55.34-4.4 56.55-0.2Q54.84 0.75 52.75 0.75L52.75 0.75ZM65.19 0.75Q62.49 0.75 60.92-0.93 59.34-2.6 59.34-5.4L59.34-5.4 59.34-37.05 65.49-37.7 65.49-5.65Q65.49-5 65.79-4.6 66.09-4.2 66.69-4.2L66.69-4.2Q67.04-4.2 67.37-4.3 67.69-4.4 67.79-4.4L67.79-4.4 68.99-0.2Q67.29 0.75 65.19 0.75L65.19 0.75ZM89.99-29.85L91.54-25.1Q90.49-24.6 89.02-24.4 87.54-24.2 85.34-24.2L85.34-24.2Q87.44-23.2 88.47-21.53 89.49-19.85 89.49-17.4L89.49-17.4Q89.49-13.4 87.04-10.95 84.59-8.5 80.39-8.5L80.39-8.5Q79.14-8.5 77.84-8.9L77.84-8.9Q76.94-8.15 76.94-6.85L76.94-6.85Q76.94-5.85 77.49-5.35 78.04-4.85 79.54-4.85L79.54-4.85 82.34-4.85Q86.34-4.85 88.69-2.78 91.04-0.7 91.04 2.5L91.04 2.5Q91.04 6.3 88.12 8.58 85.19 10.85 79.79 10.85L79.79 10.85Q74.09 10.85 71.82 8.75 69.54 6.65 69.54 2.6L69.54 2.6 74.99 2.6Q74.99 4.75 75.99 5.65 76.99 6.55 79.84 6.55L79.84 6.55Q82.59 6.55 83.74 5.6 84.89 4.65 84.89 2.9L84.89 2.9Q84.89 1.2 83.94 0.4 82.99-0.4 80.99-0.4L80.99-0.4 79.09-0.4Q75.29-0.4 73.54-1.75 71.79-3.1 71.79-5.45L71.79-5.45Q71.79-6.8 72.52-8.03 73.24-9.25 74.49-10.2L74.49-10.2Q72.44-11.5 71.49-13.3 70.54-15.1 70.54-17.7L70.54-17.7Q70.54-22.05 73.14-24.58 75.74-27.1 80.14-27.1L80.14-27.1Q83.39-27.1 85.52-27.8 87.64-28.5 89.99-29.85L89.99-29.85ZM80.14-23Q78.39-23 77.49-21.75 76.59-20.5 76.59-17.8L76.59-17.8Q76.59-15.25 77.49-13.88 78.39-12.5 80.09-12.5L80.09-12.5Q81.84-12.5 82.69-13.73 83.54-14.95 83.54-17.85L83.54-17.85Q83.54-20.55 82.72-21.78 81.89-23 80.14-23L80.14-23ZM113.14-13.85Q113.14-13.4 112.99-11.3L112.99-11.3 99.34-11.3Q99.54-7.2 100.76-5.58 101.99-3.95 104.24-3.95L104.24-3.95Q105.79-3.95 107.04-4.48 108.29-5 109.74-6.15L109.74-6.15 112.29-2.65Q108.79 0.75 103.89 0.75L103.89 0.75Q98.69 0.75 95.91-2.85 93.14-6.45 93.14-13L93.14-13Q93.14-19.55 95.79-23.35 98.44-27.15 103.29-27.15L103.29-27.15Q107.94-27.15 110.54-23.78 113.14-20.4 113.14-13.85L113.14-13.85ZM107.14-15.3L107.14-15.65Q107.14-19.4 106.24-21.13 105.34-22.85 103.34-22.85L103.34-22.85Q101.49-22.85 100.51-21.18 99.54-19.5 99.34-15.3L99.34-15.3 107.14-15.3ZM129.09-27.1Q130.24-27.1 131.14-26.75L131.14-26.75 130.14-20.85Q129.14-21.1 128.29-21.1L128.29-21.1Q126.39-21.1 125.29-19.45 124.19-17.8 123.59-14.55L123.59-14.55 123.59 0 117.44 0 117.44-26.45 122.79-26.45 123.24-21.85Q125.09-27.1 129.09-27.1L129.09-27.1ZM157.63-27.15Q160.28-27.15 161.88-25.1 163.48-23.05 163.48-19.6L163.48-19.6 163.48 0 157.43 0 157.43-18.95Q157.43-20.85 156.93-21.68 156.43-22.5 155.48-22.5L155.48-22.5Q153.53-22.5 151.73-18.8L151.73-18.8 151.73 0 145.73 0 145.73-18.95Q145.73-22.5 143.83-22.5L143.83-22.5Q141.78-22.5 140.03-18.8L140.03-18.8 140.03 0 133.98 0 133.98-26.45 139.33-26.45 139.73-23.05Q142.33-27.15 145.98-27.15L145.98-27.15Q147.83-27.15 149.18-26 150.53-24.85 151.23-22.75L151.23-22.75Q153.88-27.15 157.63-27.15L157.63-27.15ZM185.88-6.4Q185.88-5.1 186.23-4.48 186.58-3.85 187.38-3.45L187.38-3.45 186.13 0.65Q184.08 0.4 182.86-0.45 181.63-1.3 181.03-3.05L181.03-3.05Q178.73 0.75 174.58 0.75L174.58 0.75Q171.28 0.75 169.33-1.48 167.38-3.7 167.38-7.4L167.38-7.4Q167.38-11.7 170.06-13.95 172.73-16.2 177.83-16.2L177.83-16.2 179.88-16.2 179.88-18.05Q179.88-20.55 179.01-21.58 178.13-22.6 176.18-22.6L176.18-22.6Q173.83-22.6 170.33-21.3L170.33-21.3 168.93-25.3Q170.93-26.2 173.08-26.68 175.23-27.15 177.18-27.15L177.18-27.15Q185.88-27.15 185.88-18.35L185.88-18.35 185.88-6.4ZM176.23-3.7Q178.63-3.7 179.88-7L179.88-7 179.88-12.55 178.43-12.55Q175.88-12.55 174.71-11.4 173.53-10.25 173.53-7.85L173.53-7.85Q173.53-5.8 174.23-4.75 174.93-3.7 176.23-3.7L176.23-3.7ZM203.33-27.1Q204.48-27.1 205.38-26.75L205.38-26.75 204.38-20.85Q203.38-21.1 202.53-21.1L202.53-21.1Q200.63-21.1 199.53-19.45 198.43-17.8 197.83-14.55L197.83-14.55 197.83 0 191.68 0 191.68-26.45 197.03-26.45 197.48-21.85Q199.33-27.1 203.33-27.1L203.33-27.1ZM219.38-5L221.53-1.2Q219.08 0.75 215.78 0.75L215.78 0.75Q212.33 0.75 210.53-1.23 208.73-3.2 208.73-6.6L208.73-6.6 208.73-22 205.63-22 205.63-26.45 208.73-26.45 208.73-32.3 214.88-33.05 214.88-26.45 219.88-26.45 219.28-22 214.88-22 214.88-6.6Q214.88-4.2 216.93-4.2L216.93-4.2Q217.58-4.2 218.08-4.38 218.58-4.55 219.38-5L219.38-5Z" opacity="1" transform="matrix(1,0,0,1,0,0)" fill="#000000" class="slogan-text-1" data-fill-palette-color="secondary" id="text-1"></path></svg></g></svg></g></svg></g></svg></g><g transform="matrix(1,0,0,1,168.99456368687163,0)"><svg viewBox="0 0 57.53087262625672 99.15928034163079" height="99.15928034163079" width="57.53087262625672"><g><svg xmlns="http://www.w3.org/2000/svg" xmlns:xlink="http://www.w3.org/1999/xlink" version="1.1" x="0" y="0" viewBox="21.679106830508616 1 56.85827385947762 98" enable-background="new 0 0 100 100" xml:space="preserve" height="99.15928034163079" width="57.53087262625672" class="icon-icon-0" data-fill-palette-color="accent" id="icon-0"><g fill="#000000" data-fill-palette-color="accent"><path fill-rule="evenodd" clip-rule="evenodd" d="M30.545 28.822C29.38 36.039 30.875 43.672 37.045 47.863 30.758 19.81 45.756 8.664 59.646 1 43.466 24.046 76.542 24.644 78.423 51.13 80.028 73.71 64.507 91.317 46.639 99 46.845 76.175 24.089 73.067 21.801 54.397 20.905 47.094 25.062 33.766 30.545 28.822" fill="#000000" data-fill-palette-color="accent"></path></g></svg></g></svg></g><g></g></svg></g><defs></defs></svg><rect width="395.52" height="201.6949317434879" fill="none" stroke="none" visibility="hidden"></rect></g></svg></g></svg>