<svg width="717" height="888" viewBox="0 0 717 888" fill="none" xmlns="http://www.w3.org/2000/svg">
<g clip-path="url(#clip0_91_159)">
<rect width="717" height="888" fill="#1E1E1E"/>
<path d="M238.102 923.346C238.102 1001.94 295.312 1087 181.808 1087C68.3046 1087 -88.0439 1032.88 -88.0439 954.282C-88.0439 875.688 -50.5148 686.991 198.786 720.712C312.289 720.712 238.102 844.751 238.102 923.346Z" fill="#6A6A6A" fill-opacity="0.08"/>
<path d="M856.866 177.539C856.866 243.948 905.234 315.82 809.272 315.82C713.31 315.82 581.124 270.088 581.124 203.679C581.124 137.27 612.853 -22.1719 823.626 6.32077C919.588 6.32077 856.866 111.129 856.866 177.539Z" fill="#6A6A6A" fill-opacity="0.08"/>
<path d="M296.02 96.93C296.02 234.216 384.782 382.796 208.68 382.796C32.5771 382.796 -210 288.255 -210 150.969C-210 13.6825 -151.773 -315.927 235.021 -257.025C411.123 -257.025 296.02 -40.3564 296.02 96.93Z" fill="#6A6A6A" fill-opacity="0.08"/>
</g>
<defs>
<clipPath id="clip0_91_159">
<rect width="717" height="888" fill="white"/>
</clipPath>
</defs>
</svg>
