<svg width="258" height="208" viewBox="0 0 258 208" fill="none" xmlns="http://www.w3.org/2000/svg">
<path d="M1.65083 178.194C1.65083 175.49 2.20983 173.085 3.32783 170.979C4.47183 168.847 6.08383 167.196 8.16383 166.026C10.2438 164.83 12.6358 164.232 15.3398 164.232C18.7718 164.232 21.6578 165.155 23.9978 167.001C26.3378 168.821 27.8458 171.304 28.5218 174.45H20.2928C19.7988 173.41 19.1098 172.617 18.2258 172.071C17.3678 171.525 16.3668 171.252 15.2228 171.252C13.4548 171.252 12.0378 171.889 10.9718 173.163C9.93183 174.411 9.41183 176.088 9.41183 178.194C9.41183 180.326 9.93183 182.029 10.9718 183.303C12.0378 184.551 13.4548 185.175 15.2228 185.175C16.3668 185.175 17.3678 184.902 18.2258 184.356C19.1098 183.81 19.7988 183.017 20.2928 181.977H28.5218C27.8458 185.123 26.3378 187.619 23.9978 189.465C21.6578 191.285 18.7718 192.195 15.3398 192.195C12.6358 192.195 10.2438 191.61 8.16383 190.44C6.08383 189.244 4.47183 187.593 3.32783 185.487C2.20983 183.355 1.65083 180.924 1.65083 178.194ZM42.3205 192.273C40.1365 192.273 38.1735 191.818 36.4315 190.908C34.7155 189.998 33.3635 188.698 32.3755 187.008C31.3875 185.318 30.8935 183.329 30.8935 181.041C30.8935 178.779 31.3875 176.803 32.3755 175.113C33.3895 173.423 34.7545 172.123 36.4705 171.213C38.2125 170.303 40.1755 169.848 42.3595 169.848C44.5435 169.848 46.4935 170.303 48.2095 171.213C49.9515 172.123 51.3165 173.423 52.3045 175.113C53.3185 176.803 53.8255 178.779 53.8255 181.041C53.8255 183.303 53.3185 185.292 52.3045 187.008C51.3165 188.698 49.9515 189.998 48.2095 190.908C46.4675 191.818 44.5045 192.273 42.3205 192.273ZM42.3205 185.643C43.3865 185.643 44.2705 185.253 44.9725 184.473C45.7005 183.667 46.0645 182.523 46.0645 181.041C46.0645 179.559 45.7005 178.428 44.9725 177.648C44.2705 176.868 43.3995 176.478 42.3595 176.478C41.3195 176.478 40.4485 176.868 39.7465 177.648C39.0445 178.428 38.6935 179.559 38.6935 181.041C38.6935 182.549 39.0315 183.693 39.7075 184.473C40.3835 185.253 41.2545 185.643 42.3205 185.643ZM64.5795 163.14V192H56.9355V163.14H64.5795ZM76.5765 163.14V192H68.9325V163.14H76.5765ZM101.834 180.807C101.834 181.405 101.795 182.003 101.717 182.601H87.2476C87.3256 183.797 87.6506 184.694 88.2226 185.292C88.8206 185.864 89.5746 186.15 90.4846 186.15C91.7586 186.15 92.6686 185.578 93.2146 184.434H101.366C101.028 185.942 100.365 187.294 99.3766 188.49C98.4146 189.66 97.1926 190.583 95.7106 191.259C94.2286 191.935 92.5906 192.273 90.7966 192.273C88.6386 192.273 86.7146 191.818 85.0246 190.908C83.3606 189.998 82.0476 188.698 81.0856 187.008C80.1496 185.318 79.6816 183.329 79.6816 181.041C79.6816 178.753 80.1496 176.777 81.0856 175.113C82.0216 173.423 83.3216 172.123 84.9856 171.213C86.6756 170.303 88.6126 169.848 90.7966 169.848C92.9546 169.848 94.8656 170.29 96.5296 171.174C98.1936 172.058 99.4936 173.332 100.43 174.996C101.366 176.634 101.834 178.571 101.834 180.807ZM94.0336 178.896C94.0336 177.96 93.7216 177.232 93.0976 176.712C92.4736 176.166 91.6936 175.893 90.7576 175.893C89.8216 175.893 89.0546 176.153 88.4566 176.673C87.8586 177.167 87.4686 177.908 87.2866 178.896H94.0336ZM113.035 169.848C114.517 169.848 115.804 170.147 116.896 170.745C118.014 171.343 118.872 172.149 119.47 173.163V170.121H127.114V191.766C127.114 193.82 126.724 195.666 125.944 197.304C125.164 198.968 123.942 200.294 122.278 201.282C120.64 202.27 118.56 202.764 116.038 202.764C112.658 202.764 109.954 201.971 107.926 200.385C105.898 198.799 104.741 196.641 104.455 193.911H111.982C112.138 194.613 112.528 195.159 113.152 195.549C113.776 195.939 114.582 196.134 115.57 196.134C118.17 196.134 119.47 194.678 119.47 191.766V188.958C118.872 189.972 118.014 190.778 116.896 191.376C115.804 191.974 114.517 192.273 113.035 192.273C111.293 192.273 109.707 191.818 108.277 190.908C106.873 189.998 105.755 188.698 104.923 187.008C104.117 185.292 103.714 183.303 103.714 181.041C103.714 178.779 104.117 176.803 104.923 175.113C105.755 173.423 106.873 172.123 108.277 171.213C109.707 170.303 111.293 169.848 113.035 169.848ZM119.47 181.041C119.47 179.637 119.08 178.532 118.3 177.726C117.546 176.92 116.61 176.517 115.492 176.517C114.348 176.517 113.399 176.92 112.645 177.726C111.891 178.506 111.514 179.611 111.514 181.041C111.514 182.445 111.891 183.563 112.645 184.395C113.399 185.201 114.348 185.604 115.492 185.604C116.61 185.604 117.546 185.201 118.3 184.395C119.08 183.589 119.47 182.471 119.47 181.041ZM152.374 180.807C152.374 181.405 152.335 182.003 152.257 182.601H137.788C137.866 183.797 138.191 184.694 138.763 185.292C139.361 185.864 140.115 186.15 141.025 186.15C142.299 186.15 143.209 185.578 143.755 184.434H151.906C151.568 185.942 150.905 187.294 149.917 188.49C148.955 189.66 147.733 190.583 146.251 191.259C144.769 191.935 143.131 192.273 141.337 192.273C139.179 192.273 137.255 191.818 135.565 190.908C133.901 189.998 132.588 188.698 131.626 187.008C130.69 185.318 130.222 183.329 130.222 181.041C130.222 178.753 130.69 176.777 131.626 175.113C132.562 173.423 133.862 172.123 135.526 171.213C137.216 170.303 139.153 169.848 141.337 169.848C143.495 169.848 145.406 170.29 147.07 171.174C148.734 172.058 150.034 173.332 150.97 174.996C151.906 176.634 152.374 178.571 152.374 180.807ZM144.574 178.896C144.574 177.96 144.262 177.232 143.638 176.712C143.014 176.166 142.234 175.893 141.298 175.893C140.362 175.893 139.595 176.153 138.997 176.673C138.399 177.167 138.009 177.908 137.827 178.896H144.574ZM195.064 164.505V192H187.42V176.829L182.233 192H175.837L170.611 176.712V192H162.967V164.505H172.21L179.113 182.367L185.86 164.505H195.064ZM198.167 181.041C198.167 178.779 198.57 176.803 199.376 175.113C200.208 173.423 201.326 172.123 202.73 171.213C204.16 170.303 205.746 169.848 207.488 169.848C208.996 169.848 210.296 170.147 211.388 170.745C212.48 171.343 213.325 172.149 213.923 173.163V170.121H221.567V192H213.923V188.958C213.325 189.972 212.467 190.778 211.349 191.376C210.257 191.974 208.97 192.273 207.488 192.273C205.746 192.273 204.16 191.818 202.73 190.908C201.326 189.998 200.208 188.698 199.376 187.008C198.57 185.292 198.167 183.303 198.167 181.041ZM213.923 181.041C213.923 179.637 213.533 178.532 212.753 177.726C211.999 176.92 211.063 176.517 209.945 176.517C208.801 176.517 207.852 176.92 207.098 177.726C206.344 178.506 205.967 179.611 205.967 181.041C205.967 182.445 206.344 183.563 207.098 184.395C207.852 185.201 208.801 185.604 209.945 185.604C211.063 185.604 211.999 185.201 212.753 184.395C213.533 183.589 213.923 182.471 213.923 181.041ZM233.567 173.982C234.425 172.734 235.465 171.746 236.687 171.018C237.909 170.29 239.222 169.926 240.626 169.926V178.077H238.481C236.817 178.077 235.582 178.402 234.776 179.052C233.97 179.702 233.567 180.833 233.567 182.445V192H225.923V170.121H233.567V173.982ZM256.275 185.487V192H252.96C247.37 192 244.575 189.231 244.575 183.693V176.478H241.884V170.121H244.575V164.817H252.258V170.121H256.236V176.478H252.258V183.81C252.258 184.408 252.388 184.837 252.648 185.097C252.934 185.357 253.402 185.487 254.052 185.487H256.275Z" fill="white"/>
<circle cx="79" cy="74" r="74" fill="#1740B9"/>
<path d="M152 128C166.322 128 180.057 122.311 190.184 112.184C200.311 102.057 206 88.3217 206 74C206 59.6783 200.311 45.9432 190.184 35.8162C180.057 25.6893 166.322 20 152 20L152 74L152 128Z" fill="#E9044C"/>
<path d="M206 111C215.813 111 225.224 107.102 232.163 100.163C239.102 93.2241 243 83.813 243 74C243 64.187 239.102 54.7759 232.163 47.8371C225.224 40.8982 215.813 37 206 37L206 74V111Z" fill="#EAC901"/>
</svg>
