<svg width="238" height="148" viewBox="0 0 238 148" fill="none" xmlns="http://www.w3.org/2000/svg">
<circle cx="74" cy="74" r="74" fill="#1740B9"/>
<path d="M147 128C161.322 128 175.057 122.311 185.184 112.184C195.311 102.057 201 88.3217 201 74C201 59.6783 195.311 45.9432 185.184 35.8162C175.057 25.6893 161.322 20 147 20L147 74L147 128Z" fill="#E9044C"/>
<path d="M201 111C210.813 111 220.224 107.102 227.163 100.163C234.102 93.2241 238 83.813 238 74C238 64.187 234.102 54.7759 227.163 47.8371C220.224 40.8982 210.813 37 201 37L201 74V111Z" fill="#EAC901"/>
</svg>
