<?xml version="1.0" encoding="utf-8"?>
<!-- Generator: Adobe Illustrator 24.3.0, SVG Export Plug-In . SVG Version: 6.00 Build 0)  -->
<svg version="1.1" id="Layer_1" xmlns="http://www.w3.org/2000/svg" xmlns:xlink="http://www.w3.org/1999/xlink" x="0px" y="0px"
	 viewBox="0 0 800 800" enable-background="new 0 0 800 800" xml:space="preserve">
<g>
	<path d="M456.392,260.084c48.493-30.931,61.618-91.929,37.201-142.387c-5.199-10.745-21.203-1.348-16.02,9.364
		c20.422,42.204,8.141,94.068-33.162,118.573c-35.688,21.173-83.11,15.135-111.467-15.621
		c-27.536-29.865-31.873-75.533-9.76-109.793c26.826-41.563,80.557-51.162,122.453-27.405c10.401,5.897,19.761-10.125,9.364-16.02
		c-48.851-27.699-110.879-17.45-144.39,29.043c-29.954,41.557-25.807,100.066,9.214,137.294
		C354.795,280.306,413.381,287.518,456.392,260.084z"/>
	<circle cx="470.161" cy="101.21" r="8.677"/>
	<path d="M398.368,138.305c7.03,0,12.971,5.004,12.971,10.926c0,5.021,4.083,9.104,9.104,9.104c5.017,0,9.1-4.083,9.1-9.104
		c0-12.066-8.128-23.025-20.235-27.275l-1.748-0.615l-0.122-1.85c-0.317-4.765-4.303-8.496-9.07-8.496
		c-4.767,0-8.753,3.731-9.07,8.496l-0.123,1.85l-1.748,0.615c-12.102,4.25-20.23,15.212-20.23,27.275
		c0,16.065,13.98,29.136,31.171,29.136c7.03,0,12.971,5.004,12.971,10.926c0,5.922-5.941,10.926-12.971,10.926
		c-7.027,0-12.963-5.004-12.963-10.926c0-5.021-4.083-9.106-9.104-9.106c-5.02,0-9.103,4.085-9.103,9.106
		c0,12.093,8.158,23.066,20.301,27.303l1.63,0.57l0.233,1.71c0.599,4.495,4.475,7.883,9.006,7.883c4.531,0,8.407-3.391,9.011-7.886
		l0.232-1.71l1.629-0.568c12.144-4.237,20.303-15.21,20.303-27.303c0-16.065-13.981-29.136-31.171-29.136
		c-7.026,0-12.967-5.003-12.967-10.926C385.405,143.309,391.341,138.305,398.368,138.305z"/>
	<path d="M73.796,595.529h54.4c13.253,0,24.034-10.78,24.034-24.034v-13.137c0.142,0.003,0.274,0.042,0.417,0.042h52.667
		c-21.465,35.377-25.857,58.04-13.863,70.09c4.756,4.905,10.993,7.379,18.847,7.379c10.211,0,23.178-4.221,39.115-12.68
		c-11.232,23.649-11.948,39.617-2.416,49.188c4.697,4.847,10.975,7.025,18.476,7.025c13.354,0,30.585-6.926,49.634-18.024
		c0.231,5.938,1.982,11.801,6.623,16.461c4.742,4.892,11.084,7.338,18.97,7.338c3.276,0,6.836-0.45,10.64-1.294
		c1.115,26.683,27.152,59.089,30.996,63.73l0.584,0.643c5.069,5.069,11.89,7.519,19.391,7.519c11.437,0,24.451-5.694,35.208-16.456
		c8.713-8.711,14.078-18.895,15.815-28.529c1.312,0.163,2.619,0.342,3.992,0.342c2.582,0,5.259-0.29,7.99-0.879
		c9.58-2.065,19.237-7.582,27.186-15.536c7.954-7.949,13.471-17.606,15.532-27.186c0.098-0.458,0.139-0.904,0.222-1.359
		c1.675,0.273,3.396,0.444,5.177,0.444c2.582,0,5.259-0.29,7.99-0.879c9.58-2.065,19.237-7.582,27.186-15.536
		c7.954-7.949,13.471-17.606,15.532-27.186c0.835-3.873,1.041-7.622,0.7-11.154c1.698-0.134,3.416-0.344,5.171-0.722
		c9.584-2.061,19.241-7.578,27.191-15.532c11.395-11.395,17.075-25.304,16.362-37.206h30.528c0.144,0,0.277-0.039,0.421-0.043
		v13.137c0,13.253,10.78,24.034,24.029,24.034h54.4c13.253,0,24.034-10.78,24.034-24.034v-267.27
		c0-13.253-10.78-24.034-24.034-24.034h-54.4c-13.249,0-24.029,10.78-24.029,24.034v2.665c-0.144-0.003-0.277-0.043-0.421-0.043
		H395.96H152.646c-0.143,0-0.275,0.039-0.417,0.042v-2.665c0-13.253-10.78-24.034-24.034-24.034h-54.4
		c-13.253,0-24.034,10.78-24.034,24.034v267.27C49.762,584.748,60.542,595.529,73.796,595.529z M334.965,664.84
		c-1.67-1.682-2.111-7.075,1.197-16.852c27.088-18.53,56.156-42.887,82.187-66.392l-12.438-13.77
		c-32.996,29.797-61.469,52.081-84.441,67.491l-0.307-0.128c-0.057,0.137-0.13,0.315-0.191,0.463
		c-33.277,22.255-54.797,29.847-60.74,23.725c-0.362-0.367-8.522-9.478,22.39-56.884c4.606-3.217,9.383-6.668,14.336-10.357
		c37.582-27.988,72.038-60.08,72.609-60.623c3.904-3.9,7.438-8.167,10.509-12.674l-15.337-10.445
		c-2.419,3.551-5.204,6.917-8.063,9.779c-0.335,0.312-34.035,31.702-70.801,59.083c-54.214,40.376-76.481,43.085-81.188,38.234
		c-0.476-0.48-11.106-12.524,38.99-80.739c27.123-36.934,58.069-71.023,58.078-71.05c5.214-5.209,10.101-11.007,14.83-16.614
		c11.388-13.508,19.832-22.801,26.772-23.12c3.223,0.181,5.759,2.454,8.26,5.033l0.988,1.001
		c19.785,18.476,107.137,97.168,159.445,97.163c0.289,0,0.566-0.027,0.853-0.032c-4.809,12.936,0.162,29.263,7.344,43.592
		c-17.193-8.099-36.633-11.99-49.773,1.355c-11.559,11.585-9.172,28.883-2.569,45.013c-18.055-9.29-39.429-14.826-53.538-0.497
		c-11.409,11.435-9.238,28.439-2.83,44.388c-17.75-8.853-38.395-13.752-52.154,0.21c-0.525,0.526-0.976,1.082-1.444,1.631
		l-0.16-0.394C346.461,667.001,337.972,667.938,334.965,664.84z M424.401,726.202c-10.318,10.318-23.4,13.335-28.119,9.163
		c-15.559-18.929-33.691-51.12-23.721-61.108c11.429-11.622,45.844,10.853,60.569,23.441c0.297,0.391,0.59,0.777,0.864,1.133
		C437.371,704.018,434.269,716.329,424.401,726.202z M489.898,663.621c-1.3,6.042-5.132,12.597-10.513,17.978
		s-11.935,9.218-17.978,10.518c-4.425,0.96-8.09,0.458-10.137-1.345c-0.551-0.672-1.109-1.395-1.665-2.098
		c-0.696-1.064-1.473-2.077-2.341-3.036c-14.416-19.167-28.811-46.871-19.719-55.983c11.523-11.718,46.441,11.247,60.95,23.767
		C490.351,655.455,490.863,659.151,489.898,663.621z M546.005,619.105c-1.3,6.042-5.132,12.597-10.513,17.978
		s-11.935,9.218-17.978,10.518c-4.43,0.96-8.09,0.462-10.137-1.345c-15.541-18.952-33.664-51.157-23.726-61.117
		c11.528-11.713,46.441,11.247,60.949,23.766C546.458,610.938,546.97,614.634,546.005,619.105z M584.085,582.488
		c-5.381,5.381-11.935,9.213-17.982,10.513c-4.398,0.96-8.085,0.466-10.137-1.345c-15.555-18.933-33.691-51.125-23.726-61.113
		c11.528-11.718,46.446,11.238,60.954,23.762C597.434,558.966,594.449,572.12,584.085,582.488z M663.067,304.225
		c0-3.021,2.455-5.481,5.476-5.481h54.4c3.021,0,5.481,2.46,5.481,5.481v267.27c0,3.021-2.46,5.481-5.481,5.481h-54.4
		c-3.021,0-5.476-2.459-5.476-5.481v-32.069V325.817V304.225z M644.514,325.817v213.609c0,0.208-0.213,0.421-0.421,0.421h-39.257
		c-6.623-5.655-35.857-29.418-61.222-31.025c21.15-46.592-72.575-156.2-92.729-178.956l-0.385-0.408
		c-1.431-1.431-2.992-2.768-4.618-4.059h198.211C644.306,325.4,644.514,325.609,644.514,325.817z M152.646,325.4h214.216
		c35.702,0,58.712,5.558,70.33,16.99c47.239,53.394,107.586,141.576,87.37,161.863c-0.784,0.802-1.676,1.463-2.624,2.051
		c-0.04-0.075-0.068-0.155-0.108-0.23l-3.288,1.762c-28.213,9.201-104.097-45.478-153.04-91.17l-0.566-0.575
		c-2.036-2.101-5.889-6.013-11.516-8.493l0.12-0.294c-20.628-8.393-36.83,10.848-51.139,27.825
		c-4.48,5.309-9.109,10.798-14.069,15.767c-0.312,0.349-31.838,35.068-59.536,72.772c-4.145,5.642-7.911,10.993-11.462,16.18
		h-64.689c-0.208,0-0.417-0.213-0.417-0.421V325.817C152.229,325.609,152.438,325.4,152.646,325.4z M68.315,304.225
		c0-3.021,2.459-5.481,5.481-5.481h54.4c3.021,0,5.481,2.46,5.481,5.481v21.592v213.609v32.069c0,3.021-2.46,5.481-5.481,5.481
		h-54.4c-3.021,0-5.481-2.459-5.481-5.481V304.225z"/>
	<path d="M705.515,248.375c40.966-28.713,51.147-81.543,29.895-125.461c-5.199-10.745-21.203-1.348-16.02,9.364
		c38.699,79.972-65.648,155.782-126.923,89.966c-61.418-65.969,22.048-163.598,98.945-119.996
		c10.401,5.897,19.761-10.125,9.364-16.02c-42.366-24.022-95.843-16.406-126.738,22.449c-29.62,37.25-27.167,91.97,5.309,126.687
		C611.752,270.005,666.729,275.56,705.515,248.375z"/>
	<path d="M706.005,108.803c0,4.254,3.449,7.703,7.703,7.703c4.255,0,7.704-3.449,7.704-7.703c0-4.255-3.449-7.704-7.704-7.704
		C709.454,101.1,706.005,104.549,706.005,108.803z"/>
	<path d="M649.972,141.736c6.242,0,11.516,4.442,11.516,9.7c0,4.457,3.625,8.082,8.082,8.082c4.454,0,8.078-3.625,8.078-8.082
		c0-10.712-7.217-20.442-17.964-24.214l-1.551-0.546l-0.109-1.642c-0.281-4.23-3.82-7.542-8.052-7.542s-7.771,3.312-8.052,7.542
		l-0.109,1.642l-1.551,0.546c-10.744,3.773-17.96,13.504-17.96,24.214c0,14.262,12.411,25.866,27.673,25.866
		c6.242,0,11.516,4.442,11.516,9.7c0,5.258-5.275,9.7-11.516,9.7c-6.238,0-11.508-4.442-11.508-9.7c0-4.457-3.625-8.084-8.082-8.084
		c-4.457,0-8.082,3.627-8.082,8.084c0,10.736,7.242,20.477,18.024,24.239l1.447,0.506l0.206,1.518
		c0.532,3.99,3.974,6.999,7.996,6.999c4.022,0,7.464-3.01,8-7.001l0.206-1.518l1.447-0.504
		c10.781-3.762,18.024-13.503,18.024-24.239c0-14.262-12.412-25.866-27.673-25.866c-6.237,0-11.512-4.442-11.512-9.7
		C638.464,146.178,643.734,141.736,649.972,141.736z"/>
	<path d="M198.657,244.17c38.134-28.131,47.119-77.997,26.98-119.615c-5.199-10.745-21.203-1.348-16.02,9.364
		c36.078,74.556-59.307,148.002-119.345,87.965c-62.125-62.125,17.477-158.632,92.611-116.669
		c10.436,5.828,19.801-10.191,9.364-16.02C150.156,65.687,97.295,73.774,67.986,113.5c-27.043,36.653-23.048,89.289,9.167,121.503
		C109.37,267.22,162.003,271.209,198.657,244.17z"/>
	<path d="M197.083,111.191c0,4.085,3.312,7.397,7.397,7.397c4.086,0,7.397-3.312,7.397-7.397c0-4.085-3.312-7.397-7.397-7.397
		C200.395,103.794,197.083,107.106,197.083,111.191z"/>
	<path d="M143.277,142.815c5.994,0,11.058,4.266,11.058,9.314c0,4.28,3.481,7.761,7.761,7.761c4.277,0,7.757-3.481,7.757-7.761
		c0-10.286-6.93-19.629-17.25-23.252l-1.49-0.524l-0.105-1.577c-0.27-4.062-3.668-7.243-7.732-7.243s-7.462,3.18-7.732,7.243
		l-0.104,1.577l-1.49,0.524c-10.317,3.623-17.246,12.968-17.246,23.252c0,13.695,11.918,24.838,26.573,24.838
		c5.994,0,11.058,4.266,11.058,9.314c0,5.048-5.065,9.314-11.058,9.314c-5.99,0-11.051-4.266-11.051-9.314
		c0-4.28-3.481-7.763-7.761-7.763c-4.28,0-7.761,3.483-7.761,7.763c0,10.309,6.954,19.663,17.307,23.275l1.389,0.486l0.198,1.458
		c0.511,3.832,3.816,6.72,7.678,6.72s7.167-2.89,7.682-6.722l0.198-1.458l1.389-0.484c10.353-3.612,17.307-12.966,17.307-23.275
		c0-13.695-11.919-24.838-26.573-24.838c-5.989,0-11.054-4.265-11.054-9.314C132.226,147.081,137.287,142.815,143.277,142.815z"/>
	<path fill="#F16235" d="M663.067,304.225c0-3.021,2.455-5.481,5.476-5.481h54.4c3.021,0,5.481,2.46,5.481,5.481v267.27
		c0,3.021-2.46,5.481-5.481,5.481h-54.4c-3.021,0-5.476-2.459-5.476-5.481v-32.069V325.817V304.225z"/>
	<path fill="#58C7DE" d="M68.315,304.225c0-3.021,2.459-5.481,5.481-5.481h54.4c3.021,0,5.481,2.46,5.481,5.481v21.592v213.609
		v32.069c0,3.021-2.46,5.481-5.481,5.481h-54.4c-3.021,0-5.481-2.459-5.481-5.481V304.225z"/>
</g>
</svg>

