<svg width="717" height="883" viewBox="0 0 717 883" fill="none" xmlns="http://www.w3.org/2000/svg">
<path d="M361.351 101.165C361.351 229.792 430.174 369 293.63 369C157.086 369 -31 280.422 -31 151.795C-31 23.1679 14.1472 -285.652 314.054 -230.465C450.598 -230.465 361.351 -27.4626 361.351 101.165Z" fill="#6A6A6A" fill-opacity="0.08"/>
<path d="M805.014 48.475C805.014 117.883 850.624 193 760.135 193C669.646 193 545 145.203 545 75.7954C545 6.38765 574.919 -160.253 773.67 -130.474C864.159 -130.474 805.014 -20.9328 805.014 48.475Z" fill="#6A6A6A" fill-opacity="0.08"/>
<path d="M171.014 912.475C171.014 981.883 216.624 1057 126.135 1057C35.646 1057 -89 1009.2 -89 939.795C-89 870.388 -59.0806 703.747 139.67 733.526C230.159 733.526 171.014 843.067 171.014 912.475Z" fill="#6A6A6A" fill-opacity="0.08"/>
</svg>
