<svg width="717" height="883" viewBox="0 0 717 883" fill="none" xmlns="http://www.w3.org/2000/svg">
<g clip-path="url(#clip0_58_6)">
<rect width="717" height="883" fill="#1E1E1E"/>
<path d="M343.615 127.018C343.615 252.166 415.076 387.609 273.298 387.609C131.52 387.609 -63.7766 301.427 -63.7766 176.279C-63.7766 51.1309 -16.8986 -249.336 294.505 -195.642C436.283 -195.642 343.615 1.86988 343.615 127.018Z" fill="#6A6A6A" fill-opacity="0.08"/>
<path d="M804.286 75.7535C804.286 143.284 851.644 216.369 757.686 216.369C663.729 216.369 534.304 169.865 534.304 102.335C534.304 34.8046 565.371 -127.329 771.74 -98.3549C865.698 -98.3549 804.286 8.22311 804.286 75.7535Z" fill="#6A6A6A" fill-opacity="0.08"/>
<path d="M145.982 916.384C145.982 983.915 193.34 1057 99.382 1057C5.42435 1057 -124 1010.5 -124 942.966C-124 875.435 -92.9336 713.302 113.436 742.276C207.393 742.276 145.982 848.854 145.982 916.384Z" fill="#6A6A6A" fill-opacity="0.08"/>
</g>
<defs>
<clipPath id="clip0_58_6">
<rect width="717" height="883" fill="white"/>
</clipPath>
</defs>
</svg>
